<svg xmlns="http://www.w3.org/2000/svg" version="1.1" xmlns:xlink="http://www.w3.org/1999/xlink" xmlns:svgjs="http://svgjs.dev/svgjs" viewBox="0 0 800 800" opacity="1"><g fill="none" stroke-width="1.5" stroke="hsl(0, 0%, 44%)" stroke-linecap="round"><path d="M1752.27 356.43C1642.04 380.59 1667.04 401.9 1803.45 420.43 1935.4 439.02 1950.3 454.97 1836.38 468.5 1686.59 482.36 1621.53 494.21 1689.47 504.54 1832.86 515.91 1933.29 526.67 1910.22 537.68 1779.72 551.11 1639.64 566.29 1591.78 584.41 1666.76 606.75 1802.29 633.7 1893.86 666.33 1872.41 704.33 1749.49 748.67 1608.51 799.4 1541.21 854.02 1586.99 913.05 1706.26 974.65 1814.75 1034.46 1834.72 1091.66 1750.5 1142.81 1553.81 1198.57 1598.49 1222.1 1741.74 1188.67 1746.28 1155.59 1661.5 1119.12 1530.22 1085.75 1415.18 1064.11 1370 1058.26 1407.48 1073.19 1501.54 1110.77 1596.85 1169.48 1642.46 1244.82 1613.58 1327.24 1518.64 1407.93 1395.92 1475.7 1290.31 1520.28 1239.79 1536.08 1254.81 1521.04 1322.25 1481.05 1407.04 1424.6 1471.68 1365.57 1490.39 1321.27 1451.71 1303.33 1366.93 1320.77 1257.94 1374.3 1155.58 1456.13 1083.89 1551.36 1055.55 1639.38 1071.4 1702.18 1118.69 1725.43 1181.86 1705.64 1237.92 1649.48 1270.79 1574.2 1272.55 1505.37 1239.59 1464.51 1178.35 1468.24 1096.8 1520.15 1009.01 1608.89 926.79 1711.52 856.81 1798.65 807.27 1845.79 779.18 1839.06 771.68 1783.31 780.58 1698.09 799.81 1614.52 827.03 1565.56 853.84 1570.59 875.86 1632.12 893.47 1731.36 901.38 1835.49 899.4 1908.18 889.54 1923.96 870.92 1877.81 845.58 1787.94 814.57 1691.72 779.86 1627.31 743.47 1622.82 704.47 1682.78 666.03 1784.9 629.36 1889.31 591.89 1953.91 557.21 1952.19 525.81 1884.35 494.29 1780.01 466.36 1682.76 442.19 1635.09 418.03 1658.96 397.93 1742.77 381.73 1849.57 365.4 1934.6 352.67 1960.79 343.08 1917.67 332.69 1823.04 324.4 1715.08 317.06 1636.34 307.1 1616.63 295.84 1661.24 281.28 1749.67 261.06 1846.57 234.52 1911.66 199.64 1919.27 156.89 1865.83 104.68 1769.61 43.23 1664.37 -22.61 1585.25 -92.8 1557.61 -162.9 1586.93 -225.02 1660.37 -276.32 1748.34 -310.69 1818.38 -324.47 1846.2 -316.29 1819.79 -287.11 1746.49 -245.69 1646.76 -198.15 1549.26 -156.27 1480.02 -134.71 1455.48 -140.85 1478.42 -181.09 1537.16 -252.45 1612.68 -346.39 1679.11 -446.8 1716.03 -531.33 1712.36 -583.78 1666.24 -591.38 1588 -555.62 1493.62 -488.53 1403.71 -414.11 1335.54 -363.9 1300.11 -359.09 1301.11 -410.96 1333.04 -508.74 1386.48 -625.96 1445.14 -725.07 1494.23 -771.76 1523.46 -752.15 1523.85 -676.67 1494.45 -584.08 1438.63 -518.48 1364.5 -518.13 1282.6 -592.27 1201.93 -715.3 1133.22 -836.24 1082.78 -900.59 1053.66 -881.45 1046.37 -791.57 1057.46 -685.44 1083.7 -624.95 1117.35 -652.87 1151.79 -762.23 1183.52 -899.28 1205.47 -990.5 1214.7 -986.47 1210.83 -893.7 1192.38 -773.37 1161.05 -708.81 1118.3 -747.48 1067.27 -873.69 1011.28 -1010.66 951.29 -1073.16 891.68 -1021.57 834.66 -896.29 779.86 -788.05 730.37 -780.25 686.63 -885.45 647.52 -1033.56 614.15 -1120.06 585.74 -1083.71 561.51 -954.05 540.9 -832.88 522.79 -819.13 507.35 -927.78 492.95 -1078.26 478.68 -1153.28 465.71 -1094.16 451.84 -949.15 436.52 -840.01 421.66 -858.52 404.81 -992.89 385.66 -1131.72 366.61 -1157.95 345.06 -1047.72 320.9 -896.28 296.74 -833.73 270.25 -911.19 241.58 -1062.05 213 -1157.17 182.45 -1117.4 150.24 -975.13 118.51 -845.41 85.65 -829.86 52.28 -937.41 20.2 -1077.72 -11.36 -1137.55 -41.49 -1068.79 -68.95 -921.84 -93.51 -805.29 -114.01 -959.99 -139.42 -754.04 -105.33 -812.52 -78.61 -938.36 -64.48 -1025.2 -54.8 -1013.22 -52.85 -905.96 -62.32 -765.93 -84.12 -672.57 -119.91 -673.84 -168.82 -760.25 -229.85 -872.73 -300.07 -942.69 -372.99 -924.49 -444.53 -825.22 -508.01 -640.43 -571.01 -659.56 -561.28 -796.05 -498.46 -831.07 -451.13 -791.14 -410.87 -691.36 -388.19 -568.24 -391.94 -468.53 -424.74 -424.05 -485.63 -443.92 -566.38 -511.51 -655.95 -593.44 -739.53 -657.02 -801.6 -673.49 -831.95 -635.5 -825.06 -551.58 -785.43 -445.17 -723.25 -343.85 -655.74 -268.98 -604.37 -236 -584.27 -244.89 -605.75 -287.95 -667.81 -346.68 -758.53 -402.11 -857.43 -441.19 -939.56 -450.57 -985 -427.98 -982.02 -376 -934.35 -302.98 -857.48 -220.18 -777.4 -135.37 -723.75 -60.54 -716.03 -1.64 -761.54 39.46 -849.29 61.08 -953.98 66.36 -1043.13 57.19 -1088.16 39.81 -1075.22 19.38 -1009.75 -13.09 -876.33 -42.66 -849.42 -34.55 -993.39 -21.32 -1091.15 -2.11 -1144 21.38 -1131.4 48.19 -1059.75 77.12 -957.74 106.73 -867.88 137.71 -829.51 167.91 -859.29 196.52 -946.73 225.44 -1055.95 252.13 -1141 276.3 -1164.89 300.46 -1117.25 321.8 -1018.78 340.61 -912.02 359.72 -841.74 376.92 -836.38 393.01 -896.19 410.46 -995.81 428.26 -1091.99 447.79 -1144.89 470.63 -1133.34 497.39 -1060.72 529.74 -955.18 567.37 -855.98 612.18 -799.38 664.83 -803.64 721.96 -864.81 785.11 -956.34 852.01 -1041.96 916.27 -1089.87 977.03 -1080.23 1029.08 -1015.58 1066.69 -916.31 1087.46 -814.36 1088.23 -740.89 1071.21 -716.44 1037.73 -744.86 993.71 -812.32 935.34 -929.36 947.97 -944.31 1049.77 -820.44 1143.69 -721.77 1240.29 -641.32 1320.59 -596.35 1366.72 -594.44 1370.35 -631.19 1331.41 -692.34 1230.46 -787.75 1167.3 -805.1 1289.19 -707.04 1404.27 -617.88 1504.29 -530.52 1555.83 -458.85 1543.02 -412.13 1474.22 -395.5 1381.23 -406.92 1311.58 -441.53 1300.99 -488.35 1364.55 -536.2 1481.27 -576.97 1605.58 -600.41 1683.6 -602.07 1681.62 -581.08 1604.75 -538.63 1496.57 -479.75 1422.45 -409.15 1428.54 -334.8 1521.89 -263.23 1657.75 -198.22 1766.64 -145.31 1789.47 -106.35 1614.53 -82.79 1851.97 -143.24 1733.78 -163.3 1610.4 -171.15 1564.37 -172.11 1636.22 -166.28 1780.74 -155.08 1898.84 -137.73 1906.54 -115.34 1801.51 -88.73 1664.99 -58.74 1605.55 -26.61 1674.7 7.94 1823.23 43.15 1937.87 78.12 1929.4 114.14 1805.62 149.01 1668.13 182.21 1633.15 215.75 1731.87 247.2 1885.16 276.34 1965.03 305.53 1903.71 332.27 1752.27 356.43Q1752.27 356.43 1752.27 356.43" opacity="0.31"></path><path d="M1696.27 239.16C1588.13 262.35 1603.75 286.1 1728.41 310.5 1863.9 335.07 1902.89 360.61 1815.89 387.43 1668.78 414.85 1571.7 444.11 1593.88 475.63 1715.8 508.3 1843.28 543.77 1881.27 582.38 1801.12 622.36 1657.84 665.56 1549.44 711.86 1546.61 758.72 1645.63 807.69 1773.2 857.8 1840.94 906 1799.67 952.89 1674.59 996.63 1541.74 1034.49 1480.88 1065.93 1522.4 1088.98 1688.85 1104.65 1651.8 1073.07 1464.53 1033.35 1405.49 1005.69 1436.49 980.51 1531.85 962.58 1636.38 957.61 1688.87 967.56 1659.79 995.1 1559.52 1040.07 1432.75 1100.78 1333.72 1173.28 1300.22 1249.69 1339.7 1323.79 1425.58 1387.11 1516.36 1431.52 1566.57 1452.51 1552.91 1447.39 1477.36 1419.39 1365.77 1373.45 1255.7 1319.09 1179.56 1270.23 1158.24 1236.89 1189.93 1229.44 1258.64 1253.78 1334.16 1308.79 1388.46 1387.86 1403.66 1477.21 1371.28 1561.9 1299.33 1625.62 1202.59 1655.86 1103.9 1647.6 1022.65 1603.84 970.86 1538.48 955.25 1468.54 971.63 1414.76 1012.84 1395.67 1063.9 1419.17 1111.22 1483.7 1146.63 1575.04 1159.74 1671.77 1148.42 1749.1 1113.76 1786.69 1059.81 1775.36 993.62 1719.43 919.36 1638.88 846.05 1559.34 779.04 1508.62 719.53 1506.84 672.2 1557.22 637.02 1647.05 599.85 1800.69 606.74 1580.09 608.84 1581.42 609.05 1656.62 605.12 1759.92 596.98 1853.76 588.33 1903.13 575.72 1889.18 559.38 1816.81 542.84 1715.25 522.93 1623.65 499.74 1579.09 476.54 1600.66 450.33 1678.53 421.06 1780.86 391.58 1868.08 358.68 1904.96 322.14 1877.69 285.1 1796.83 244.19 1692.5 199.49 1602.96 154.71 1559.85 106.95 1576.9 57.28 1645.14 9.91 1738.98 -36.56 1822.06 -79.7 1864.02 -115.84 1849.92 -144.32 1782.99 -162.3 1685.11 -169.2 1586.72 -163.52 1518.21 -145.17 1498.41 -119.33 1530.79 -86.72 1601.12 -52.66 1684.09 -26.66 1753.19 -12.42 1784.15 -16.93 1766.7 -44.78 1704.42 -96.53 1613.32 -170.03 1516.99 -255.44 1438.37 -344.02 1395.82 -422.18 1396.1 -475.51 1435.87 -496.26 1500.23 -480.23 1569.41 -434.72 1625.32 -371.17 1650.77 -308.93 1638.6 -271.48 1590.03 -272.95 1514.05 -321.35 1425.49 -408.83 1339.35 -516.87 1271.21 -617.4 1230.61 -680.92 1221.58 -690.73 1241.62 -644.99 1282.57 -565.33 1335.42 -483.41 1386.34 -436.78 1424.54 -452.05 1443.49 -530.43 1437.37 -648.59 1406.59 -761.87 1354.12 -827.95 1286.41 -820.26 1211.47 -747.02 1135.6 -645.24 1067.38 -569.13 1012.05 -564.2 972.27 -640 949.98 -766.98 943.8 -884.8 952.4 -937.38 971.16 -899.02 995.54 -795.86 1023.63 -688.83 1049.3 -645.57 1069.36 -699.03 1083.5 -824.82 1088.12 -954.35 1082.96 -1012.87 1068.92 -968.07 1045.84 -850.28 1015.33 -740.29 978.13 -713.11 936.36 -793.93 891.88 -934.6 844.36 -1045.71 796.71 -1053.92 750.13 -956.57 703.21 -823.3 658.67 -752.1 616.91 -799.05 575.99 -934.41 538.06 -1063.14 502.99 -1092.11 468.82 -1000.75 437.17 -858.22 407.71 -775.81 378.79 -818.27 351.6 -956.08 325.92 -1083.07 300.38 -1099.86 276.04 -991.72 252.84 -845.37 229.65 -777.42 207.86 -839.58 187.59 -982.07 167.46 -1091.52 149.13 -1083.32 132.88 -892.88 110.55 -893.57 81.1 -1065.96 75.18 -1063.65 73.19 -953.33 74.36 -811.09 78.34 -731.66 81.98 -764.87 87.1 -881.38 92.54 -999.35 94.93 -1035.3 95.07 -963.81 91.1 -827.4 80.44 -708.98 62.83 -676.15 36.67 -742.65 1.65 -860.47 -42.66 -953.27 -95.97 -963.39 -155.2 -880.47 -219.51 -748.71 -285.68 -635.23 -348.16 -596.32 -404.45 -643.79 -450 -794.61 -487.82 -782.04 -454.72 -603.66 -396.81 -512.74 -356.36 -490.11 -322.51 -536.22 -303.22 -625.16 -305.62 -711.22 -332.01 -754.69 -382.78 -735.56 -452.8 -657.23 -534.84 -546.54 -618.1 -400.33 -714.31 -406.22 -727.44 -512 -648.71 -568.23 -587.53 -585.76 -538.16 -558.52 -515.38 -491.08 -528.99 -398.83 -579.43 -301.7 -659.48 -215.95 -752.81 -157.66 -840.49 -132.35 -902.72 -139.66 -925.46 -171.74 -904.51 -216.73 -846.59 -285.24 -735.3 -316.43 -682.09 -264.79 -792.63 -207.71 -892.61 -141.35 -978.99 -72.01 -1026.46 -1.77 -1021.75 62.3 -967.35 117.72 -882.05 165.14 -797.25 202.08 -742.4 229.8 -739.33 249.45 -792.32 262.59 -885.41 271.55 -988.2 275.96 -1065.4 279.31 -1090.36 283.28 -1054.07 285.64 -971.34 290.37 -872.72 298.26 -796.43 305.84 -773.73 317.13 -814.06 332.33 -903.58 347.53 -1008.24 366.69 -1087.3 389.88 -1108.89 413.08 -1064.36 440.04 -971.6 470.65 -867.71 501.27 -793 535.49 -775.56 573.09 -820.32 610.39 -909.55 650.5 -1007.16 692.64 -1075.57 733.15 -1089.59 773.94 -1042.79 813.28 -952.05 848.06 -848.66 878.28 -767.96 901.57 -735.72 916.8 -760.78 922.38 -831.18 917.05 -920.05 903.72 -996.81 881.27 -1033.1 852.2 -1016.26 824.03 -950.48 798.37 -854.89 781.49 -757.34 780.83 -684.39 798.96 -655.1 839.28 -673.8 899.79 -732.25 977.4 -809.18 1064.52 -879.84 1147.6 -923.69 1217.2 -925.62 1261.46 -884.09 1273.1 -807.87 1251.17 -714.61 1201.17 -625.1 1111.24 -540.54 1082.69 -595.29 1197.8 -686.29 1303.93 -737.98 1402.13 -764.83 1465.21 -760.25 1475.72 -723.89 1433.07 -660.88 1354.15 -581.62 1273.87 -496.86 1225.21 -419.79 1235 -359.96 1307.39 -323 1421.63 -311.46 1537.96 -322.68 1611.46 -352.81 1615.44 -393.05 1550.32 -434.96 1451.66 -472.96 1368.8 -498.54 1348.98 -507.76 1410.21 -499.56 1530.03 -473.16 1655.05 -431.24 1724.97 -376.38 1707.63 -313.66 1614.84 -247.92 1503.78 -181.57 1440.65 -120.01 1469.65 -65.87 1581.32 -19.71 1717.1 16.34 1800.6 42.69 1784.78 59.85 1682.41 69.1 1561.06 72.41 1504.65 69.85 1554.7 64.6 1685.76 58.49 1815.36 50.46 1860.65 44.02 1792.27 40.1 1661.08 36.74 1560.78 36.9 1567.42 40.67 1752.7 50.13 1773.79 87.05 1590.79 112.6 1587.18 130.96 1700.1 150.93 1844.91 172.18 1909.39 193.59 1842.62 215.96 1696.27 239.16Q1696.27 239.16 1696.27 239.16" opacity="0.13"></path><path d="M1640.27 438.64C1534.46 460.87 1541.27 485.49 1653.55 512.39 1789.51 539.25 1849.51 568.29 1791.29 599.32 1655.64 630.1 1536.57 662.54 1513.79 696.23 1600.04 729.11 1732.52 762.52 1819.36 795.73 1801.79 827.01 1689.3 856.87 1553.58 884.25 1477.93 908.13 1506.08 928.03 1614.22 942.86 1732.13 952.86 1782.75 956.8 1733.84 954.24 1611.64 947.2 1484.76 934.5 1421.24 917.08 1451.22 898.86 1551.13 879.55 1659.67 861.74 1715.16 849.99 1683.34 845.11 1578.97 850.02 1450.94 867.3 1359.71 897.49 1343.1 941.15 1402.67 996.03 1502.36 1060.42 1589.71 1130.43 1622.12 1199.38 1580.48 1263.07 1481 1315.4 1313.62 1358.66 1291.89 1316.51 1414.21 1248.67 1477.86 1203.19 1491.31 1167.74 1448.35 1151.27 1359.98 1160.57 1252.48 1196.94 1155.48 1258.33 1091.59 1336.52 1074.44 1421.28 1100.94 1499.34 1159.31 1557.14 1226.83 1585.74 1282.04 1580.17 1310.56 1543.92 1301.67 1485.3 1257 1418.78 1183.52 1363.2 1095.46 1332.66 1007.73 1338.26 930.97 1382.55 876.6 1458.36 848.07 1550.66 845.28 1638.41 863.48 1702.12 894.88 1726.43 934.5 1706.77 971.75 1649.28 1000.35 1570.97 1018.54 1497.07 1021.25 1449.63 1008.84 1445.68 982.67 1489.79 944.7 1571.7 898.57 1669.68 845.2 1755.55 789.55 1804.71 734.46 1802.33 678.81 1750.71 627.07 1666.53 580.06 1578.19 535.39 1517.4 495.84 1505.22 460.87 1548.24 428.2 1633.8 399.09 1734.09 372.65 1815.27 347.43 1849.46 323.76 1824.49 300.97 1748.78 278.51 1650.56 256.27 1564.62 234.05 1523.09 211.82 1542.46 189.85 1614.47 168.41 1711.9 147.3 1800.11 127.35 1846.21 109.27 1834.17 92.41 1768.51 78.54 1671.68 68.57 1576.6 60.9 1514.41 58.16 1504.46 60.91 1547.57 66 1628.33 76.18 1717.42 90.68 1784.54 104.61 1808.08 119.51 1778.84 132.55 1705.55 138.35 1609.18 136.42 1517.59 123.13 1455.69 96.09 1438.93 54.37 1468.95 -2.33 1533.54 -69.45 1613 -144.75 1681.58 -221.91 1718.94 -290.85 1714.32 -346.08 1666.89 -379.79 1587.98 -387.76 1495.13 -369.36 1409.72 -328 1349.48 -275.68 1325.27 -222.47 1339.18 -183.25 1383.77 -172.84 1447.08 -197.62 1510.83 -259.2 1559.03 -347.48 1580.94 -447.44 1569.37 -537.62 1525.9 -595.93 1457.09 -609.94 1374.72 -576.55 1292.04 -510.05 1220.2 -432.37 1169.62 -373.14 1144.95 -359.32 1147.06 -401.2 1171.7 -492.57 1211.3 -605.88 1258.91 -706.35 1303.49 -759.39 1337.04 -747.68 1355.11 -678.58 1352.82 -583.22 1330.15 -508.47 1288.87 -490.77 1233 -546.34 1168.12 -656.83 1098.32 -778.86 1030.44 -859.95 969.09 -864.85 916.49 -794.3 876.09 -686.1 848.36 -601.57 833.1 -588.72 828.92 -662.29 833.38 -847.48 853.71 -849.33 904.62 -685.84 923.07 -651.38 930.7 -715.5 932.44 -845.95 928.37 -966.63 919.9 -1006.36 906.1 -941.31 887.84 -816.17 866 -713.29 841.01 -704.29 813.86 -799.71 784.53 -939.75 754.28 -1032.52 723.91 -1016.25 692.49 -902.65 661.77 -771.4 632.25 -717.57 602.35 -780.9 574.07 -919.09 547.69 -1033.59 521.22 -1041.53 496.81 -935.72 474.58 -794.6 452.35 -722.09 432.57 -769.33 415.12 -960.72 389.93 -879.52 348.95 -714.56 331.6 -728.64 319.34 -837.71 307.29 -964.45 294.7 -1023.18 279.93 -972.47 263.37 -844.55 244.06 -718.48 221.16 -670.96 194.21 -725.79 162.36 -844.88 126.1 -949.67 84.46 -974.13 37.38 -901.49 -12.91 -771.44 -67.13 -655.47 -123.87 -613.67 -179.46 -663.37 -233.54 -769.77 -283.39 -871.45 -325.39 -908.4 -358.26 -859.12 -379.51 -745.33 -388.28 -621.02 -383.85 -542.02 -366.66 -539.72 -340.72 -607.96 -307.7 -707.32 -272.16 -788.94 -241.53 -810.42 -219.33 -760.34 -211.1 -656.22 -221.49 -538.19 -251.63 -448.78 -301.51 -416.13 -366.86 -446.04 -442.59 -519.01 -520.7 -604.38 -590.81 -664.81 -645.29 -676.74 -676.54 -633.89 -681.01 -547.36 -658.88 -442.05 -614.77 -343.92 -559.81 -278.23 -504.43 -256.38 -461.86 -278.4 -444.63 -331.42 -458.55 -395.77 -505.18 -454.1 -578.1 -487.07 -665.79 -486.1 -752.25 -450.2 -820 -385.15 -856.25 -302.97 -853.57 -214.39 -814.85 -134.26 -750.14 -71.84 -677.11 -31.47 -618.03 -15.64 -589.56 -20.87 -603.01 -43.91 -658.45 -76.25 -744.23 -110.53 -839.99 -155.98 -943.58 -175.3 -877.51 -145.12 -754.65 -111 -693.89 -69.48 -676.21 -23.6 -710.32 26.81 -788.02 77.45 -886.71 126.45 -976.05 175.85 -1027.76 221.75 -1025.39 263.69 -969.72 304.62 -881.17 341.55 -789.81 374.79 -728.52 407.21 -720.86 436.57 -770.27 463.27 -860.69 489.71 -960.35 513.98 -1033.5 536.21 -1052.89 558.44 -1011.39 578.36 -924.34 595.83 -823.88 613.03 -745.94 627.29 -717.62 638.17 -747.39 648.22 -824.16 654.28 -918.98 655.99 -998.03 656.68 -1034.56 653.08 -1014.84 645.6 -945.49 638.52 -848.57 629.44 -754.78 620.17 -692.56 615.44 -679.58 614.68 -717.14 620.89 -790.47 637.26 -875.9 664.73 -944.3 705.18 -973.99 757.05 -955.61 820.31 -892.8 892.15 -802.61 964.96 -707.99 1035.34 -633.29 1095.92 -595.53 1138.69 -601.74 1159.89 -646.47 1156.02 -714.38 1130.1 -786.87 1085.93 -842 1032.76 -864.78 985.99 -848.87 955.79 -796 954.15 -717.29 987.44 -627.62 1054.09 -545.04 1145.48 -484.07 1242.89 -453.76 1328.35 -456.85 1382.18 -488.39 1392.14 -540.19 1357.61 -597.96 1289.98 -648.44 1215.17 -682.12 1158.47 -690.06 1144.75 -670.22 1185.82 -624.63 1274.69 -559.36 1387.78 -483.38 1488.46 -404.87 1545.37 -334.05 1538.97 -277.86 1475.81 -240.26 1383.28 -223.48 1303.88 -225.84 1278.53 -245.09 1323.95 -275.11 1428.72 -309.8 1596.52 -360.32 1551.73 -399.95 1405.96 -377.84 1376.51 -346.26 1432.42 -304.35 1552.19 -255.07 1676.68 -199.72 1743.58 -142.36 1718.08 -85.62 1618.41 -29.68 1503.74 22.02 1445.54 68.51 1484.45 110.54 1602.74 146.5 1734.38 176.84 1801.76 202.34 1765.82 223.2 1650.34 240.48 1533.01 254.24 1491.89 265.94 1559.2 276.58 1752.84 289.74 1676.04 318.16 1521.07 335.95 1546.77 348.22 1669.29 362.79 1803.31 379.83 1852.77 396.83 1781.39 416.41 1640.27 438.64Q1640.27 438.64 1640.27 438.64" opacity="0.07"></path><path d="M1584.27 561.99C1481.01 583.26 1479.67 603.83 1579.12 623.62 1712.66 643.27 1790.07 661.85 1760.94 679.08 1579.22 703.21 1552.33 739.32 1725.88 749.5 1768.79 753.93 1710.95 755.02 1586.37 752.74 1465.82 749.57 1416.72 743.59 1462.02 735.4 1622.49 717.64 1369.98 742.94 1456.01 784.84 1563.99 824.37 1640.12 872.57 1645.31 928.42 1574.67 988.32 1458.1 1050.96 1345.12 1112.8 1280.05 1168.63 1285.85 1215.96 1352.43 1250.85 1447.67 1270.54 1525.94 1273.75 1552.85 1260.22 1515.7 1233.52 1425.72 1196.23 1314.04 1153.85 1188.21 1100.03 1250.58 1091.8 1362.18 1157.71 1407.89 1225.79 1407.93 1303.83 1361.38 1382.07 1278.29 1448.96 1179.45 1495.92 1087.28 1515.71 1018.92 1506.46 987.05 1470.51 992.37 1415.45 1029.47 1355.04 1084 1301.58 1140.2 1268.68 1186.49 1266.9 1209.56 1299.13 1204.77 1362.35 1172.27 1445.4 1116.35 1533.22 1045.47 1608.11 966.32 1654.21 889.91 1662.39 823.44 1631.31 770.08 1570.79 734.24 1496.18 715.31 1428.12 712.2 1387.5 721.22 1386.44 737.89 1428.58 761.06 1505.27 784.36 1598.3 804.56 1683.97 822.57 1739.56 833.71 1750.49 837.54 1713.91 836.06 1642.13 827.48 1556.25 813.01 1483.18 794.1 1447.52 771.19 1461.11 745.75 1522.04 717.85 1612.88 689.18 1706.38 660.82 1773.4 631.5 1792.86 603.54 1758.22 577.51 1680.36 551.28 1585.97 527.41 1505.68 506.15 1467.09 484.89 1484.37 466.48 1550.62 450.71 1642.77 434.74 1730.83 420.99 1784.59 408.89 1786.79 395.84 1737.12 383.39 1651.06 370.51 1555.64 355.17 1479.63 337.62 1445.34 316.43 1461.13 290.8 1521 259.64 1604.3 221.75 1684.6 178.56 1738.25 128.43 1747.76 71.84 1710.12 13.06 1635.05 -48.39 1542.39 -109.3 1456.04 -163.71 1396.85 -210.04 1378.3 -243.78 1401.91 -261.69 1459.66 -262.24 1533.28 -244.79 1602.02 -214.23 1648.46 -173.24 1658.77 -129 1629.86 -93.03 1567.15 -71.52 1483.68 -72.88 1396.54 -101.96 1321.8 -158.36 1273.41 -237.43 1257.94 -326.4 1275.78 -413.14 1319.54 -481.86 1377.22 -518.8 1436.81 -517.98 1483.44 -480.03 1507.25 -418.29 1503.52 -349.25 1471.01 -295.34 1414.68 -277.97 1341.71 -306.53 1262.89 -380.12 1188.5 -481.25 1126.34 -585.11 1083.63 -662.14 1062.93 -689.48 1064.42 -660.71 1084.45 -587.28 1117.23 -500.72 1157.99 -435.13 1198.13 -421.62 1231.42 -472.19 1254.64 -573.36 1262.77 -690.74 1254.8 -779.46 1231.25 -806.63 1193.52 -762.14 1144.88 -669.74 1087.64 -572.96 1026.61 -521.28 965.55 -545.44 905.99 -639.72 852.08 -765 805.46 -863.36 766.24 -889.75 735.79 -832.19 713.54 -691.53 693.44 -929.48 708.47 -800.04 714.93 -685.59 718.43 -636.93 719.07 -688.05 716.66 -873.42 710.19 -865.23 681.4 -690.32 660.32 -665.4 645.07 -745.99 628.03 -881.66 609.43 -983.24 590.7 -982.98 570.66 -879.72 549.4 -743.98 528.14 -667.75 505.9 -700.63 482.63 -819.8 459.24 -944.12 434.57 -991.54 408.4 -931.49 381.77 -802 353.24 -684.74 322.53 -651.21 290.99 -719.13 256.9 -842.39 220.1 -944.05 182.4 -959.47 142.02 -878.89 99.16 -747.9 56.15 -640.76 11.54 -614.8 -33.84 -680.48 -77.35 -795.41 -119.66 -891.7 -159.27 -914.97 -193.89 -849.46 -223.2 -728.46 -245.55 -610.94 -260.15 -553.51 -266.1 -578.62 -262.78 -668.86 -252.08 -773.58 -233.59 -838.41 -208.94 -830.64 -182.8 -750.5 -156.17 -632.32 -132.79 -523.56 -118.02 -467.46 -113.61 -480.71 -122.83 -552.35 -147.62 -645.92 -187.96 -719.17 -242.79 -741.38 -307.71 -700.13 -378.88 -609.35 -450.07 -497.5 -513.27 -401.22 -563.12 -347.66 -593.78 -348.46 -602.27 -396.81 -588.1 -470.59 -553.81 -544.55 -507.3 -590.75 -455.68 -594.09 -409.22 -551.91 -379.39 -473.53 -372.7 -377.74 -394.07 -283.41 -442.98 -210.99 -513.99 -171.55 -597.22 -168.47 -678.56 -196.77 -745.23 -244.7 -785.23 -301.13 -791.9 -349.66 -764.89 -379.65 -710.74 -386.12 -644.18 -365.57 -580.49 -321.51 -536.74 -258.36 -526.78 -185.04 -555.23 -109.95 -618.97 -37.73 -705 23.53 -795.08 70.79 -868.43 103.55 -907.63 121.18 -903.8 126.25 -858.45 119.96 -785.92 106.9 -706.18 90.78 -643.11 71.39 -617.45 54.18 -638.01 41.04 -701.78 29.99 -792.21 24.87 -884.69 25.59 -952.77 29.7 -976.78 39.03 -949.75 52.58 -879.98 68.62 -790.79 87.49 -709.96 108.15 -664.48 129.98 -670.86 152.47 -727.78 174.93 -817.96 197.68 -912.25 219.81 -979.59 241.07 -996.89 262.34 -958.33 282.48 -876.97 301.72 -780.46 321.26 -700.45 340.5 -662.61 360.08 -677.84 380.83 -740.64 403.08 -828.91 427.82 -913.52 455.05 -968.24 486.17 -974.61 522.17 -930.76 561.55 -849.5 606.42 -754.43 656.83 -672.52 709.34 -625.79 765.53 -625.64 823.5 -669.21 878.19 -742.88 929.42 -822.99 973.46 -885.86 1006.12 -914.2 1025.79 -898.45 1029.88 -842.25 1019.48 -758.61 994.59 -667.54 958.28 -589.71 919.1 -541.31 881.2 -531.34 852.96 -558.47 843.82 -614.38 857.67 -682.42 898 -744.89 961.86 -787.54 1043.72 -798.4 1132.93 -774.5 1213.63 -719.46 1274.14 -643.11 1302.68 -559.04 1294.86 -480.33 1253.48 -419.98 1189.57 -385.62 1124.21 -380.29 1075.64 -401.42 1062.63 -441.79 1095.15 -493.51 1169.88 -544.35 1271.7 -584.57 1373.36 -608 1448.91 -608.71 1476.22 -586.22 1449.18 -542.57 1378.72 -482.7 1291.98 -413.49 1226.3 -340.68 1209.44 -272.35 1255.3 -214.03 1352.2 -168.87 1468.68 -139.86 1562.46 -126.77 1597.85 -128.88 1563.12 -142.88 1474.94 -164.84 1377.34 -192.8 1316.99 -221.04 1328.18 -246.03 1411.97 -266.97 1534.84 -279.75 1642.39 -283.38 1684.8 -278.43 1643.82 -263.95 1541.89 -241.09 1436.48 -210.68 1385.69 -174.3 1422.77 -133.77 1532.88 -89.19 1660.73 -43.24 1738.41 2.67 1724.45 49.44 1628.39 94.4 1507.52 136.94 1437.07 178.58 1461.67 217.24 1571.54 252.91 1703 287.27 1778.15 318.86 1750.86 348.03 1639.83 376.19 1515.57 402.43 1459.73 427.14 1511.35 451.33 1638.85 474.47 1760.15 496.82 1795.16 519.03 1720.01 540.73 1584.27 561.99Q1584.27 561.99 1584.27 561.99" opacity="0.43"></path><path d="M1528.27 366.27C1427.79 386.57 1418.97 404.43 1505.37 419.91 1633.86 435.43 1724.71 448.65 1723.53 459.71 1631.22 470.95 1501.75 480.28 1409.46 487.98 1405.31 496.3 1488.57 503.56 1608.57 510.31 1697.07 518.55 1702.36 527.26 1621.26 537.27 1495.83 550.1 1391.26 565.55 1358.81 584.56 1411.53 607.75 1517.4 635.63 1618.71 668.84 1663.33 706.59 1626.16 749.66 1524.29 797.72 1403.08 848.34 1316.74 901.8 1299.83 956.38 1355.29 1008.53 1452.41 1057.54 1543.84 1100.73 1588.27 1135.1 1563.17 1159.4 1477.81 1171.73 1363.35 1172.08 1262.79 1160.15 1210.18 1137.03 1220.06 1107.12 1282.71 1072.34 1369.16 1037.27 1446.14 1008.66 1481.7 989.68 1462.32 985.02 1392.14 998.24 1291.86 1029.95 1190.27 1079.51 1112.92 1142.67 1078.95 1214.62 1091.55 1288.1 1142.85 1353.94 1212.57 1405.42 1278.04 1435.83 1321.61 1441.82 1328.53 1423.14 1296.66 1383.24 1231.28 1331.17 1145.82 1275.61 1056.56 1228.01 976.73 1200.21 919.9 1198.68 891.57 1227.13 892.44 1283.09 917.49 1358.95 957.7 1442.68 1005.85 1519.09 1049.62 1575.1 1081.17 1600.01 1097.08 1590 1092.78 1547.76 1069.3 1483.29 1028.59 1413.64 975.11 1355 914.24 1323.34 848.41 1329.16 784.32 1373.09 725.49 1447.43 672.12 1535.79 627.94 1618.46 593 1675.7 566.24 1693.9 547.58 1668.89 535.19 1607.47 528.71 1527.81 525.63 1451.27 524.1 1400.24 525.33 1391.12 525.87 1427.53 524.63 1501.18 524.16 1592.31 520.88 1675.84 514.41 1727.8 507.96 1733.35 498.1 1690.48 484.75 1611.61 471.36 1521.52 454.53 1446.84 434.23 1411.09 413.94 1426.38 390.41 1487 363.72 1573.57 336.98 1660.41 307.02 1720.2 273.93 1735.34 240.87 1701.85 204.91 1629.11 166.44 1538.15 128.75 1454.11 89.6 1399.9 50.09 1388.92 13.35 1422.97 -21.5 1490.39 -52.6 1571.01 -87.06 1664.28 -104.41 1609.34 -83.19 1484.64 -60.39 1401.44 -31.9 1341.91 -1.25 1317.66 24.44 1332.22 43.18 1379.19 49.62 1445.02 38.82 1514.19 9.31 1568.38 -39.91 1594.77 -104.79 1587.35 -181.4 1546.06 -261.88 1478.77 -334.41 1397 -391.28 1315.71 -423.44 1248.29 -426.39 1204.44 -400.31 1189.78 -350.66 1203.48 -291.58 1241.24 -235.75 1292.92 -199.42 1347.38 -196.58 1395.43 -231.96 1426.42 -303.37 1434.8 -396.69 1418.9 -493.65 1379.71 -571.55 1322.35 -610.74 1252.74 -602.75 1179.61 -550.71 1110.71 -474.43 1051.6 -398.79 1008.03 -352.58 982.17 -357.16 974.52 -416.01 983.11 -515.56 1004.17 -624.59 1034.92 -709.11 1068.98 -740.12 1101.53 -708.64 1130.31 -628.48 1150.15 -533.67 1159.07 -467.94 1156.94 -461.73 1142.64 -524.27 1117.37 -633.8 1082.24 -748.24 1039.49 -820.22 991.66 -819.83 939.53 -749.19 886.59 -642.86 834.78 -555.87 783.95 -532.75 736.93 -590.55 694.42 -705.06 655.59 -823.26 621.84 -887.43 592.84 -866.44 567.8 -772.44 546.74 -656.68 528.83 -585.25 513.89 -599.3 500.93 -695.63 489.1 -823.47 479.02 -913.63 469.06 -915.43 458.61 -829.08 448.98 -704.61 438.21 -616.31 425.91 -619.15 413.9 -713.03 400.04 -843.55 384.12 -931.99 368.27 -924.2 350.24 -823.72 329.94 -693.48 309.65 -614.38 287.33 -633.66 263.09 -738.7 238.92 -863.67 212.96 -932.79 185.44 -905.29 158.2 -796.74 129.74 -670.26 100.44 -596.89 71.96 -616.16 43.3 -713.22 15.1 -831.98 -11.34 -903.21 -36.31 -887.08 -58.95 -791.17 -78.62 -665.2 -94.78 -572.99 -106.56 -558.6 -114.39 -624.97 -117.08 -733.38 -114.27 -827.5 -107.79 -856.91 -96.38 -806.24 -80.73 -697.33 -64.1 -579.16 -45.88 -502.38 -28.03 -496.82 -14.47 -559.53 -5.54 -657.04 -3.72 -744.71 -11.78 -780.58 -30.3 -748.29 -60.5 -658.46 -101.74 -544.64 -153.39 -447.66 -213.45 -398.98 -277.28 -411.74 -342.1 -474.43 -403.03 -598.34 -473.39 -616.15 -509.54 -483.65 -470.72 -381.54 -429.67 -303.21 -383.77 -265.57 -340.76 -273.82 -310 -319.87 -296.77 -385.77 -306.17 -452.91 -339.85 -499.44 -395.48 -512.8 -467.49 -489.04 -545.92 -431.6 -620.89 -352.1 -681.23 -262.88 -717.51 -180.46 -724.73 -116.48 -702.02 -77.33 -655.74 -66.2 -594.85 -79.46 -532.72 -112.58 -485.07 -155.31 -462.66 -198.35 -473.33 -236.49 -517.82 -260.86 -589.32 -268.32 -675 -258.64 -757.36 -231.71 -820.03 -190.92 -849.49 -138.42 -840.12 -79.67 -794.65 -19.06 -724.65 42.57 -649.74 99.83 -588.87 150.86 -559.63 196.63 -572.22 234.59 -625.13 265.34 -706.89 290.16 -797.18 309.28 -873.37 324.26 -915.27 335.29 -912.14 344.33 -864.85 352.76 -786.77 363.06 -667.87 390.2 -655.04 409.75 -775.31 423.62 -863.92 440.63 -925.58 460.93 -940.89 481.23 -905.17 504.56 -829.47 530.78 -737.35 556.87 -656.44 585.59 -610.51 616.51 -612.02 646.82 -659.96 678.58 -738.48 710.94 -823.66 741.44 -891.38 771.02 -920.9 798.27 -903.97 821.56 -845.12 840.39 -759.83 853.14 -670.49 859.96 -599.39 859.21 -563.8 850.26 -570.53 836.06 -616.31 815.24 -686.64 789.62 -761.81 765.03 -822.97 741.89 -852.86 724.57 -843.82 718.95 -797.28 726.76 -722.95 751.36 -636.78 793.08 -555.79 851.27 -496.23 922.74 -468.1 999.11 -474.89 1074.67 -512.01 1140.12 -568.77 1185.71 -632.86 1206.39 -688.32 1198.52 -723.15 1165.83 -730.48 1114.16 -707.09 1055.12 -656.73 1005.81 -586.56 977.99 -507.72 983.27 -431.68 1025.68 -367.81 1100.65 -324.47 1195.64 -305.14 1289.39 -310.23 1362.67 -335.74 1397.52 -374.97 1386.49 -421.85 1334.12 -466.56 1257.32 -501.88 1184.5 -523.61 1140.42 -526.86 1145.28 -511.06 1203.33 -477.36 1301.01 -428.76 1410.29 -369.97 1495.56 -304.71 1530.18 -239.19 1502.63 -177.99 1426.79 -123.59 1333.38 -79.84 1263.18 -47.85 1250.53 -27.85 1305.3 -19.3 1411.07 -20.35 1526.68 -30.21 1606.72 -45.4 1617.67 -63.27 1557.4 -83.58 1454.95 -102.3 1360.91 -117.75 1325.12 -130.64 1368.58 -138.1 1475.89 -139.83 1597.49 -137.02 1676.19 -128.47 1673.25 -114.83 1592.49 -97.03 1477.1 -75.26 1390.86 -50.52 1384.4 -22.96 1464.39 6.26 1590.98 36.29 1695.88 67.82 1722.04 99.18 1654.62 129.79 1534.09 161.02 1430.54 190.93 1407.05 219.22 1480.19 247.7 1608.19 274.3 1715.27 298.88 1736.58 323.48 1658.51 345.97 1528.27 366.27Q1528.27 366.27 1528.27 366.27" opacity="0.79"></path><path d="M1472.2 236.96C1374.76 256.29 1359.22 275.94 1432.6 295.99 1553.7 316.16 1653.79 336.94 1678.09 358.57 1613.77 380.63 1495.03 403.95 1384.44 428.84 1338.26 454.62 1378.12 482.44 1479.99 512.63 1590.64 544.03 1651.22 578.1 1631 614.94 1539 652.85 1418.76 693.28 1325.84 735.9 1300.82 778.45 1351.57 822.01 1449.99 865.59 1549.33 906.72 1601.11 945.71 1581.36 981.03 1497.03 1010.75 1382.46 1034.36 1283.21 1050.45 1235.92 1058.7 1255.6 1058.34 1328.69 1049.18 1423.64 1033.44 1498.8 1011.05 1523.72 983.9 1487.69 956.55 1401.67 930.16 1294.56 908.25 1199.21 895.49 1144.98 893.44 1144.14 904.73 1192.61 930.66 1269.24 970.92 1345.93 1024.19 1398.25 1086.25 1406.96 1153.51 1368.86 1220.36 1292.33 1279.74 1196.71 1326.9 1104.57 1356.69 1034.39 1366.3 1000.33 1355.02 1004.83 1324.61 1043.1 1281.38 1101.07 1231.1 1162.15 1182.43 1213.04 1145.67 1239.45 1127.18 1235.77 1132.68 1201.93 1164.11 1142.98 1218.86 1068.6 1290.68 987.44 1368.92 911.82 1442.7 850 1500.25 806.27 1532.16 784.13 1533.65 781.94 1504.78 797.63 1452.98 825.07 1388.35 858.05 1325.09 893.73 1278.89 924.5 1260.17 946.73 1275.54 960.13 1324.17 961.35 1397.74 950.97 1482.26 930.17 1560.04 900.18 1615.13 863.53 1635.36 820.69 1617.05 775.16 1564.57 729.07 1490.81 681.31 1415.58 635.58 1357.31 592.81 1332.11 550.76 1348.34 512.41 1403.01 477.72 1483.76 444.21 1570.56 414.02 1641.61 386.73 1678.23 360.18 1671 335.9 1621.43 313.52 1542.64 291.35 1457.23 270.66 1388.09 251.33 1355.1 232 1368.52 214.26 1423.64 198.25 1504.38 175.63 1621.11 143.76 1633.18 136.59 1522.02 134.99 1401.59 152.49 1361.34 169.26 1452.66 184.62 1561.58 196.66 1607.16 180.79 1518.84 156.86 1435.42 121.73 1354.67 74.83 1292.42 19.1 1259.84 -44.74 1261.62 -113.07 1294.6 -178.69 1350.8 -238.33 1415.9 -285.76 1475.31 -315.31 1517.41 -324.44 1532.03 -311.5 1516.01 -280.47 1471.5 -235.16 1405.52 -183.79 1328.71 -139.2 1251.9 -109.53 1186.81 -104.44 1141.61 -129.5 1120.93 -184.13 1125.47 -262.68 1151.51 -351.42 1193.98 -436.48 1243.41 -501.28 1290.97 -532.29 1330.22 -524.18 1353.37 -479.33 1356.98 -412.52 1340.37 -341.63 1304.49 -289.21 1253.34 -275.21 1191.05 -307.39 1124.23 -382.54 1058.75 -482.06 998.63 -580.87 949.05 -650.83 912.43 -671.49 889.76 -638.08 881.1 -562.87 884.62 -475.88 899.13 -409.29 920.67 -391.97 945.79 -435.59 973.26 -528.74 998.37 -640.94 1018.76 -731.27 1034.3 -767.45 1042.06 -735.88 1041.67 -652.36 1033.87 -552.76 1018.17 -482.59 995.65 -477.01 966.97 -542.17 933.5 -654.07 896.71 -765.06 856.53 -827.55 815.21 -813.44 773.85 -731.43 731.57 -621.26 690.66 -538.46 651.67 -527.45 613.14 -596.38 577.06 -714.48 543.48 -823.82 510.78 -870.25 480.49 -829.74 452.42 -724.82 425.08 -610.83 399.61 -550.33 375.75 -578.45 352.28 -681.44 330.08 -804.48 308.95 -879.79 287.93 -865.23 267.78 -767.79 248.45 -643.17 229.12 -561.99 210.84 -568.53 193.68 -658.36 176.63 -779.82 160.9 -865.52 146.72 -869.39 132.93 -788.67 121.02 -666.46 111.28 -565.59 102.28 -536.92 95.79 -591.81 92.03 -758.36 93.46 -505.41 117.33 -558.79 126.52 -707.5 128.78 -722.64 104.08 -563.54 70.56 -468.25 38.3 -427.44 -1.64 -451.84 -48.92 -528.04 -101.04 -621.18 -157.43 -692.58 -215.69 -714.49 -271.6 -675.97 -323.44 -589.82 -367.75 -482.61 -401.07 -388.64 -421.7 -334.52 -427.78 -332.81 -419.92 -378.81 -398.56 -452.68 -366.09 -529.99 -328.28 -583.01 -288.56 -595.02 -252.78 -561.42 -228.14 -489.48 -218.2 -396.92 -226.91 -303.1 -255.85 -229.25 -303.73 -188.2 -367.08 -184.72 -438.74 -214.74 -511.65 -266.53 -576.95 -354.32 -639.18 -409.71 -607.55 -350.1 -528.74 -282.02 -472.05 -204.7 -425.49 -128.12 -399.69 -58.83 -402.37 -5.19 -434.95 29.76 -494.3 45.46 -570.94 43.36 -652.54 27.69 -724.47 0.9 -773.19 -30.01 -789.94 -60.14 -771.54 -88.35 -723.47 -108.83 -656.1 -119.96 -585.24 -122.63 -529.26 -115.05 -501.43 -98.49 -510.51 -74.1 -556.59 -43.36 -630.63 -8.39 -716.77 30.91 -795.16 71.54 -847.8 111.94 -861.86 153.73 -834.61 193.62 -772.7 230.93 -692.18 268.23 -615.53 302.47 -562.59 333.57 -548.68 364.4 -579.01 392.2 -646.09 417.08 -732.64 441.85 -815.32 463.9 -871.44 483.22 -884.88 502.55 -851.91 518.94 -781.81 532.35 -694.47 550.71 -587.49 570.71 -616.1 572.06 -730.37 570.26 -829.52 557.18 -796.41 551.4 -678.68 552.22 -595.71 556.92 -533.14 567.6 -503.91 586.11 -513.23 613.23 -556.56 650.21 -621.77 695.65 -693.73 750.04 -753.93 811.75 -788.4 875.38 -789.61 939.38 -755.94 998.81 -694.02 1047.13 -615.04 1081.43 -533.91 1097.47 -464.86 1094.24 -418.74 1071.88 -402.23 1033.38 -415.42 987.59 -454.26 940.57 -508.61 902.28 -566.72 883.81 -618.42 890.41 -652.35 926.12 -662.29 988.03 -646.3 1069.44 -605.64 1158.29 -546.07 1237.75 -474.56 1294.87 -400.81 1317.91 -333.48 1303.37 -278.96 1255.46 -242.94 1186.98 -227.2 1119.75 -231.65 1072.54 -252.87 1063.05 -285.72 1099.16 -326.05 1175.66 -366.21 1275.8 -400.62 1406.58 -432.26 1391.26 -402.36 1267.61 -344.15 1201.58 -292.45 1182.49 -235.76 1223.11 -177.62 1313.22 -119.69 1424.34 -66.01 1517.79 -18.53 1559.43 22.36 1535.11 54.93 1455.55 79.32 1348.49 102.7 1617.08 81.73 1543.86 69.82 1410.67 57.45 1653.97 71.94 1547.72 87.72 1431.18 99.9 1355.21 113.96 1362.91 129.54 1452.42 145.57 1576.77 162.71 1668.55 180.72 1677.02 198.86 1596.82 217.63 1472.2 236.96Q1472.2 236.96 1472.2 236.96" opacity="0.45"></path><path d="M1416.2 428.74C1321.98 447.1 1300.39 467.47 1360.91 489.76 1472.63 512.02 1577.84 536.16 1624.11 562.04 1589.18 587.79 1489.7 615.1 1373.57 643.73 1294.64 671.91 1288.49 700.98 1354.85 730.52 1461.54 758.94 1556.66 787.05 1596.12 814.18 1561.92 839.13 1467.96 862.02 1354.33 882.01 1267.15 898.58 1240.94 911.13 1282.41 918.94 1371.86 922.56 1468.71 920.95 1531.92 913.94 1535.79 903.46 1476.78 888.55 1376.64 870.09 1238.62 818.74 1447.13 810 1425.86 849.95 1349.22 890.43 1249.99 940.3 1155.68 997.55 1089.57 1057.92 1067.38 1118.82 1089.95 1175.92 1147.89 1224.09 1220.59 1260.38 1285.93 1281.4 1326.83 1285.78 1330.09 1273.23 1294.62 1245.28 1226.82 1207.04 1140.97 1162.47 1053.87 1118.03 955.09 1070.7 942.82 1092.82 1010.05 1170.09 1063.67 1239.5 1108.64 1313.04 1136.85 1381.21 1144.55 1434.28 1128.81 1465.46 1092.17 1470.08 1037.97 1448.64 973.1 1404.79 904.48 1346.57 836.14 1286.46 775.38 1235.17 725.67 1203.87 687.99 1200.93 664.15 1228.33 652.81 1283.35 653.1 1357.01 661.91 1436.97 676.09 1508.62 695.35 1558.28 714.94 1576.7 732.62 1560.19 749.61 1513.38 761.98 1446.02 769.17 1373.26 773.22 1313.02 771.87 1278.84 765.72 1280.07 756.54 1318.13 743.59 1385.42 727.83 1467.62 710.14 1546.1 690.85 1602.95 670.75 1624.5 649.8 1605.92 628.91 1551.19 608.59 1473.5 588.06 1393.11 568.51 1329.44 550.15 1299.1 531.78 1310.75 514.82 1360.56 499.08 1435.28 483.13 1516.79 468 1583.79 453.18 1619.93 437.5 1617.04 421.29 1575.36 403.75 1505.04 384.29 1422.22 362.3 1345.79 336.85 1292.35 308.37 1272.96 275.4 1290.44 237.36 1339.09 196.16 1407.74 150.13 1479.29 99.82 1537.46 48.82 1570.11 -3.72 1569.03 -55.58 1534.36 -102.35 1472.51 -143.38 1395.21 -175.49 1316.78 -199.77 1229.24 -163.11 1231.73 -109.84 1308.34 -71.37 1369.09 -36.21 1421.48 -11.26 1455.8 -3.87 1466.37 -16.92 1450.02 -52.92 1409.11 -109.43 1348.86 -182.22 1277.77 -263.15 1205.28 -339.72 1139.52 -402.48 1088.65 -441.01 1057.29 -449.14 1047.49 -426.16 1058.16 -376.94 1085.35 -315.03 1124.93 -253.83 1169.15 -210.09 1211.29 -198.69 1246.91 -225.44 1269.76 -289.24 1277.06 -377.48 1268.15 -472.48 1242.93 -552.1 1203.79 -596.35 1153.23 -595.23 1095.71 -549.55 1035.56 -475.66 975.48 -396.21 920.19 -338.7 872.35 -325.97 833.11 -365.58 804.29 -449.96 785.78 -554.29 777.34 -647.55 777.56 -699.5 784.57 -693.61 797.9 -633.24 814.34 -541.5 831.87 -456.31 850.66 -411.5 867.39 -428.84 880.89 -505.51 892.06 -615.07 898.54 -716.45 900.18 -769.85 898.13 -754.8 891.29 -677.99 880.19 -574.72 865.71 -490.32 847.83 -464.87 827.34 -513.08 804.46 -616.13 779.99 -729.91 754.62 -803.35 727.89 -803.44 701.07 -729.9 674.66 -619.15 647.63 -524.19 621.52 -492.89 596.64 -542.8 571.54 -650.75 547.93 -764.31 525.99 -826.67 504.01 -806.01 483.78 -711.79 465.42 -592.91 447.06 -510.51 430.77 -505.42 416.48 -579.48 402.15 -693.7 389.73 -790.36 379.06 -822.36 368.17 -773.3 358.77 -667.28 350.58 -553.86 341.76 -485.56 333.65 -491.58 325.74 -567.1 316.49 -674.27 306.64 -762.52 295.52 -792.06 282.02 -748.09 266.22 -649.53 247.39 -536.7 225.18 -455.75 199.05 -436.88 168.51 -484.67 134.29 -575.45 95.59 -669.43 52.6 -728.53 7.27 -726.95 -40.88 -664.76 -90.68 -563.21 -139.21 -458.15 -186.25 -384.4 -229.73 -363.98 -266.9 -399.83 -296.84 -474.64 -317.65 -593.85 -328.38 -580.6 -284.16 -446.08 -237.67 -308.14 -163.33 -485.76 -209.97 -518.2 -293.4 -490.62 -359.61 -430.1 -427.32 -349.12 -489.8 -261.19 -539.89 -183.06 -572.87 -126.44 -584.77 -97.66 -575.1 -98.51 -545.3 -124.06 -499.97 -168.14 -447.9 -218.86 -396.59 -265.83 -355.45 -302.56 -333.66 -320.65 -335.76 -317.68 -364.1 -293.96 -416.17 -251.84 -485.65 -196.49 -562.78 -131.65 -635.21 -64.72 -692.02 -1 -723.63 57.36 -725.17 105.4 -696.74 141.95 -644 167.25 -579.03 181.28 -514.44 186.05 -464.51 182.21 -441.76 173.08 -451.83 161.2 -494.83 146.01 -563.35 131.66 -644.47 119.66 -721.87 108.09 -779.28 100.48 -804.7 97.07 -792.41 95.43 -746.07 97.97 -675.89 104.24 -598.45 112.06 -533.51 122.87 -496.33 136.06 -497.06 150.06 -536.81 165.7 -606.54 182.52 -689.89 199.56 -766.46 217.34 -817.21 235.7 -828.88 254.07 -798.57 272.79 -733.98 292.03 -651.75 311.48 -572.22 331.87 -514.72 353.63 -492.49 376.21 -510.39 400.91 -562.72 428.31 -635.81 457.27 -712.63 489.67 -773.69 525.93 -804.67 563.98 -798.83 605.92 -756.73 651.48 -687.76 697.48 -606.25 745.49 -529.31 794 -472.13 839.2 -445.25 881.29 -452.5 917.73 -490.21 945.55 -549.92 963.73 -617.17 970.26 -677.38 965.54 -718.95 948.92 -732.15 921.56 -714.27 888.86 -668.05 852.52 -601.09 817.82 -524.6 792.63 -450 780.22 -389.05 785.75 -349.83 812.03 -336.67 858.91 -349.38 923.94 -383.33 999.22 -432.37 1077.75 -486.13 1149.14 -535.12 1202.01 -572.38 1229.65 -590.5 1227.15 -586.66 1196.8 -561.01 1144.43 -516.06 1081.69 -457.16 1025.89 -389.82 990.02 -321.76 986.5 -259.45 1020.68 -207.42 1088.85 -170.23 1179.32 -149.4 1271.84 -145.22 1347.01 -155.76 1386.54 -177.65 1381.4 -208.47 1334.15 -242.57 1259.15 -275.63 1154.95 -316.6 1199.06 -337.07 1345.27 -312.16 1437.85 -282.27 1490.78 -244.42 1486.74 -200.86 1429.37 -152.46 1339.99 -102.35 1253.38 -52.5 1206.14 -3.03 1218.77 43.3 1291.33 85.61 1398.76 124.45 1502.25 158.28 1561.98 187.26 1555.04 212.04 1485.25 232.46 1382.78 249.21 1294.59 262.54 1260.19 273.32 1298.47 282.37 1395.47 289.24 1510.57 295.45 1593.18 301.67 1606.28 306.76 1544.23 312.62 1436.19 319.67 1335.55 326.26 1291.01 334.45 1326.64 344.48 1426.93 354.36 1543.9 366.25 1619.8 380.26 1616.55 394.23 1535.08 410.38 1416.2 428.74Q1416.2 428.74 1416.2 428.74" opacity="0.72"></path><path d="M1360.27 563.9C1269.44 581.29 1242.53 598.25 1290.52 614.7 1391.25 631.06 1497.54 646.71 1561.46 661.47 1555.26 675.86 1481.2 689.01 1371.76 700.63 1366.9 726.49 1211.94 701.94 1374.36 674.62 1481.41 671.48 1378.73 685.99 1184.41 727.35 1109.3 796.72 1216.34 891.71 1359.89 1001.15 1373.91 1101.28 1229.61 1174.81 1058.01 1201.18 995.69 1176.85 1073.35 1111.06 1196.38 1032.31 1254.54 984.77 1188.9 995.71 1043.06 1077.7 896.01 1205.67 824.41 1332.49 840.87 1401.51 958.6 1336.6 975.41 1163.67 834.38 1325.65 720.48 1462.74 623.46 1517.92 551.81 1454.73 502.69 1325.19 475.28 1227.05 459.3 1243.84 455.28 1298.45 451.61 1372.19 447.37 1450.59 441.88 1538.42 421.87 1509.09 405.75 1404.28 394.15 1329.18 379.7 1270.87 362.3 1243.09 344.9 1253.08 324.77 1297.75 302 1366.33 279.3 1443.93 254.09 1512.18 226.64 1556.04 199.52 1566.58 170.59 1541 140.36 1485.09 111.23 1410.46 81.8 1332.49 53 1266.7 -15.15 1253.4 -21.54 1497.5 49.67 1363.75 92.58 1218.88 109.42 1137.22 73.5 1155.64 -19.86 1252.11 -154.53 1355.39 -286.28 1399.48 -356.37 1356.91 -336.55 1243.47 -239.29 1110.7 -143.23 1008.76 -125.37 972.87 -229.13 1001.18 -458.31 1109.17 -314.32 1154.25 -311.8 1037.2 -491.57 929.52 -632.33 827.72 -588.25 746.12 -387.81 674.4 -682.45 666.99 -516.05 686.8 -406.54 700.29 -530.92 704.46 -727.84 698.5 -756.16 694.33 -714.77 687.8 -621 679.11 -516.66 669.79 -446.88 658.64 -444.12 645.9 -511.49 632.83 -620.37 618.47 -722.84 603 -772.58 587.43 -746.55 570.92 -655.72 553.53 -542.71 536.13 -459.92 518.05 -444.41 499.26 -502.57 480.37 -606.41 460.6 -708.35 439.78 -763.63 418.63 -747.02 396.14 -666.28 372.1 -555.54 347.42 -461.39 320.86 -421.55 292.22 -535.19 232.56 -713.14 163.94 -689.37 87.32 -489.1 11.66 -375.83 -64.67 -478.85 -133.76 -646.59 -200 -324.19 -167.19 -478.54 -89.97 -579.05 -54.16 -514.29 -50.69 -341.18 -95.54 -201.49 -186.54 -198.83 -307.11 -303.5 -424.31 -415.35 -498.23 -430.1 -505.79 -334.23 -444.95 -178.99 -353.26 -50.58 -278.55 0.42 -272.19 -30.97 -352.5 -106.27 -489.49 -174.75 -617 -208.06 -666.48 -184.47 -613.19 -115.94 -493.83 -15.94 -397.57 89.12 -396.2 182.17 -504.67 262.74 -654.95 321.09 -744.79 362.53 -708.34 378.8 -649.28 392.76 -577.23 405.38 -507.7 416.35 -456.87 427.14 -435.56 438.45 -449.51 449.1 -496.8 460.97 -567.64 474.48 -646.98 487.83 -717.32 503.13 -762.88 520.53 -772.89 537.93 -745.14 557.21 -685.95 578.22 -609.11 599.07 -531.73 621.33 -470.78 644.58 -439 667.15 -442.84 690 -480.26 712.4 -542.12 749.74 -533.66 678.14 -654.2 786.18 -590.11 911.8 -451.25 1042.55 -325.13 1127.58 -270.17 1130.2 -302.94 1053.57 -391.02 948.11 -477.91 902.03 -518.82 964.56 -486.35 1122.01 -393.22 1272.29 -268.87 1313.05 -155.3 1214.44 -81.17 1082.42 -57.75 1056.41 -79.48 1193.14 -125.97 1374.45 -181.79 1426.7 -221.33 1299.16 -233.57 1156.62 -217.81 1185.95 -173.53 1378.71 -110.1 1507.24 -32.06 1416.61 48.87 1235.98 125.55 1231.85 200.37 1426.41 265.36 1553.48 320.79 1520.36 346.94 1432.12 371.11 1326.48 393.61 1250.84 415.36 1238.51 435.85 1297.23 455.34 1402.61 474.47 1509.05 492.95 1568.95 510.96 1555.19 528.87 1473.28 546.5 1360.27 563.9Q1360.27 563.9 1360.27 563.9" opacity="0.74"></path><path d="M1304.27 376.24C1186.1 409.1 1311.42 434 1490.54 451.43 1366.36 474.92 1374.11 502.32 1444.3 521.78 1260.21 546.92 1125.4 584.31 1184.3 638.49 1351.22 707.31 1417.15 791.63 1302.75 885.72 1119.03 974.58 1042.36 1050.35 1123.46 1098.03 1266.63 1108.97 1319.99 1081.16 1230.87 1022.28 1062.71 958.66 938.56 911.25 928.67 907.25 1019.52 960.87 1126.28 1064.42 1169.19 1190.29 1118.39 1293.25 995.76 1337.4 859.72 1304.2 780.85 1170.49 889.47 1443.7 826.2 1329.93 756.18 1211.16 680.5 1160.35 608.61 1221.62 535.65 1360.2 473.05 1483.87 421.28 1504.52 370.79 1408.72 329.44 1266.29 296.58 1187.09 251.92 1303.8 214.14 1448.95 224.89 1252.84 234.81 1163.9 249.61 1185 260.02 1291.65 250.96 1409.65 218.01 1455.1 150.99 1398.3 56.31 1269.59 -59.07 1139.27 -170.74 1071.58 -243.35 1092.56 -257.54 1178.27 -204.81 1273.68 -119.41 1329.07 -45.69 1310.25 -41.92 1224.64 -131.84 1101.98 -283.72 986.94 -417.64 913 -450.82 894.68 -367.69 926.08 -238.34 983.99 -188.01 1048.01 -277.96 1089.34 -455.35 1095.62 -570.66 1065.69 -525.84 1003.46 -371.43 922.2 -286.34 829.74 -379.05 741.46 -570.06 665.05 -653.05 600.34 -539.63 552.07 -374.08 517.09 -378.93 493.05 -562.4 475.8 -697.61 460.59 -610.22 449.44 -422.69 435.39 -403.62 416.11 -589.24 397.49 -717.89 372.1 -599.72 339.24 -410.31 306.38 -428.96 266.83 -620.79 221.45 -707.45 176.72 -562.16 127.7 -384.76 76.88 -406.92 30.11 -585.36 -13.5 -675.08 -49.09 -555.6 -73.73 -367.27 -83.83 -323.86 -76.07 -458.74 -56.62 -597.53 -23.87 -575.91 14.62 -407.72 41.94 -255.93 51.79 -250.42 31.08 -375.73 -25.82 -493.59 -116.06 -489.46 -227.09 -358.2 -332.02 -195.5 -408.55 -107.55 -433.32 -135.07 -402.46 -236.02 -328.44 -326.7 -244.58 -348 -197.76 -278.48 -215.51 -154.03 -305.11 -19.77 -434.73 73.33 -552.29 108.73 -602.6 89.87 -564.23 41.03 -460.7 -9.68 -356.07 -51.5 -323.34 -64.26 -390.17 -48.87 -526.7 -10.94 -651.9 43.24 -688.72 103.13 -612.49 169.74 -480.67 231.55 -387.1 284.8 -405.83 338.35 -529.02 381.85 -667.94 414.71 -716.89 447.58 -637.73 469.01 -491.96 479.47 -389.64 490.23 -403.76 491.48 -517.75 486.85 -643.65 488.93 -692.27 495.62 -625.78 517.31 -488.48 561.54 -364.59 632.66 -326.31 731.43 -385.26 839.1 -498.78 943.46 -589.18 1016.29 -601.13 1034.84 -525.19 994.11 -396.55 910.5 -274.63 836.69 -207.19 816.08 -214.74 884.41 -278.89 1022.1 -365.96 1168.17 -428.5 1238.76 -439.06 1193.88 -392 1072.2 -299.49 979.74 -188.85 1014.42 -82.95 1168.87 -6.21 1328.39 33.5 1357.09 36.47 1237.15 13.09 1098.27 -21.8 1188.74 -76.33 1327.71 -89.36 1143.3 -44.41 1251.57 0.69 1445.71 51.66 1480.55 103.63 1315.83 158.84 1180.2 210.55 1273.36 256.75 1471.7 303.33 1493.68 343.37 1304.27 376.24Q1304.27 376.24 1304.27 376.24" opacity="0.46"></path><path d="M1248.27 235.35C1130.14 266.28 1231.26 297.92 1412.11 331.04 1437.89 365.32 1272.99 403.26 1121.26 446.82 1159.46 494.04 1329.44 549.37 1421.54 613.66 1325.8 681.04 1142.65 754.7 1060.5 830.29 1150.56 897.86 1302.31 955.06 1353.08 993.07 1247.57 1007 1075.55 993.94 977.64 955.27 1081.86 880.53 1164.77 849.93 953.74 963.48 852.8 1074.88 847.48 1182.21 916.65 1252.66 1013 1264.08 1072.15 1214.47 1064.68 1125.38 991.61 1043.73 879.19 1009.2 763.96 1049.67 667.46 1156.07 610.85 1286.12 591.63 1379.82 604.16 1391.92 631.96 1317.99 660.27 1200.76 689.32 1115.25 704.46 1115.41 704.84 1210.23 698.18 1347.02 680.11 1443.93 654.87 1438.5 627.19 1335.93 596.92 1202.78 565.99 1131.09 535.07 1173.8 504.21 1298.02 471.65 1416.98 436.65 1453.02 395.36 1380.49 343.69 1246.76 284.98 1132.3 212.55 1102.54 127.39 1166.34 42.97 1281.73 -39.75 1374.2 -105.88 1389.77 -140.26 1318.48 -135.91 1193.84 -90.19 1074.42 -25.74 1009.11 37.37 1019.44 62.77 1088.03 22.57 1179.83 -82.61 1246.02 -223.21 1257.38 -336.63 1207.98 -373.78 1112.05 -313.38 999.82 -203.33 898.01 -121.04 831.93 -143.59 808.69 -274.54 826.05 -434.77 868.63 -508.29 917.88 -371.57 976.4 -389.45 942.92 -590.66 861.25 -531.18 791.12 -368.17 719.31 -289.89 651.12 -399.43 583.84 -584.19 524.4 -634.32 472.9 -494.53 424.36 -338.73 382.22 -370.62 344.97 -557.59 308.77 -661.85 275.52 -543.72 244.59 -361.41 213.66 -357.15 185.79 -529.39 161.75 -609.42 130.15 -372.62 105.98 -589.87 118.23 -513.41 138.74 -344.76 165.67 -534.53 134.84 -517.42 84.06 -368.44 9.58 -213.26 -84 -167.31 -180.92 -249.51 -269.54 -373.06 -331.16 -436.7 -352.18 -383.12 -328.59 -247.18 -267.32 -102.77 -195.63 -26.47 -138.29 -38.82 -125.4 -118.06 -173.26 -205.62 -273.87 -252.66 -397.88 -238.9 -498.68 -165.07 -539 -59.04 -501.3 56.47 -409.46 150.46 -310.02 211.85 -261.39 240.78 -299.61 242.42 -412.21 230.12 -545.05 206.17 -626.32 186.34 -611.35 176.37 -508.85 168.85 -387.05 173.49 -323.59 188.67 -365.72 205.65 -490.79 230.24 -618.15 261.16 -660.89 292.09 -589.23 328.63 -452.95 371.89 -344.25 416.95 -332.67 471.67 -420.46 537.52 -545.31 605.81 -628.22 682.94 -613.63 763 -510.68 858.06 -328.96 880.72 -394.77 795.12 -526.01 739.87 -538.91 715.33 -474.43 749.25 -360.57 843.95 -239.28 977.54 -155.22 1101.04 -130.11 1157.64 -164.02 1123.81 -232.75 1019.94 -303.62 924.53 -352.86 909.56 -357.95 1009.72 -317.84 1169.78 -240.48 1286.43 -143.68 1272.67 -46.65 1149.7 39.67 1030.69 102.04 1041.17 138.9 1271.13 149.22 1170.49 101.43 1121.55 80.8 1294.35 72.61 1432.92 74.58 1377.98 85.68 1201.48 100.45 1123.82 121.86 1253.35 147.82 1431.71 174.94 1430.58 204.42 1248.27 235.35Q1248.27 235.35 1248.27 235.35" opacity="0.83"></path><path d="M1192.27 418.72C1075.18 447.71 1152.6 483.08 1327.39 524.29 1397.07 565.26 1279.73 611.39 1106.18 661.23 1058.89 708.86 1178.47 757.02 1327.87 802.1 1350.56 839.35 1217.76 867.29 1054.45 881.36 1002.04 882.07 1094.19 866.36 1232.26 835.35 1291.65 799.88 1214.14 762.35 1058.98 733.98 931.88 729.13 913.34 752.86 994.89 810.49 1111.07 895.59 1172.88 997.52 1140.55 1096.28 1027.53 1167.19 890.17 1194.54 787.41 1169.59 750.88 1105.43 781.92 1023.7 849.6 959.05 924.36 945.68 967.74 995.32 966.38 1098.84 921.58 1219.12 844.41 1311.28 754.18 1335.72 659.11 1284.52 577.23 1182.55 513.31 1083.15 463.87 1044.54 430.62 1090.98 407.37 1205.43 392.18 1329.49 378.7 1397.06 362.34 1368.76 347.6 1262.67 326.44 1139.54 297.45 1075.09 268.45 1111.94 232.31 1224.41 190.57 1342.5 150.46 1398.15 108.29 1356.98 68.79 1243.7 27.14 1083.21 40.24 1198.21 100.26 1322.86 140.24 1324.6 168.41 1252.05 165.6 1136.81 119.36 1022.33 29.76 951.07 -89.68 941.39 -202.05 989.58 -276.25 1067.46 -281.2 1140.42 -219.93 1183.6 -122.38 1177.15 -47.37 1123.5 -53.04 1034.6 -151.04 932.68 -301.46 839.12 -424.12 746.38 -184.41 747.41 -244.95 797.24 -466.78 843.47 -294.5 850.84 -276.59 813.17 -442.35 776.06 -575.77 733.89 -539.67 690.45 -377.31 644.09 -268.51 600.07 -343.93 560.26 -524.45 519.97 -604.81 484.99 -487.72 455.99 -313.32 427 -288.57 404.68 -436 388.48 -570.64 366 -275.91 334.86 -447.29 313.59 -555.14 289.7 -501.91 256.15 -337.72 209.37 -207.17 150.8 -217.84 78.83 -341.22 -3.51 -462.41 -85.46 -469.13 -162.65 -354.32 -223.6 -196.35 -257.88 -101.67 -260.46 -117.06 -229.51 -269.76 -146.39 -245.37 -63.64 -54.36 -155.9 40.36 -263.1 68.33 -373.27 37.89 -451.66 -30.57 -472.19 -98.03 -429.04 -138.09 -340.42 -142.11 -251.04 -105.16 -202.11 -39.93 -225.08 45.4 -317.68 132.89 -443.14 211.99 -544.61 284.54 -573.4 341.74 -515.68 385.98 -402.18 422.47 -300.08 451.78 -267.42 478.29 -328.77 502.66 -452.59 528.5 -568.01 557.49 -604.89 586.49 -540.47 617.95 -414.41 650.06 -302.57 680.02 -268.5 706.36 -327.52 724.55 -440.39 734.99 -543.66 731.51 -576.28 711.57 -521.32 685.07 -405.56 649.08 -284.7 613.99 -212.24 599 -215.42 611.05 -283.94 662.68 -378.36 750.35 -456.03 864.03 -477.57 977.19 -434.02 1052.31 -339.18 1067.5 -225.16 1014.26 -126.76 924.97 -67.57 844.31 -58.73 828.71 -91.64 904.07 -152.39 1044.46 -214.51 1179.29 -258.12 1228.92 -274.26 1166.52 -254.85 1038.74 -205.3 954.13 -132.25 988.95 -48.5 1136 34.57 1285.25 113.19 1319.54 177.9 1210.25 227.43 1067.31 263.61 1032.96 287.18 1157.17 302.53 1351.83 312.83 1090.67 332.26 1235.32 352.52 1388.48 367.78 1366.67 389.72 1192.27 418.72Q1192.27 418.72 1192.27 418.72" opacity="0.70"></path><path d="M1136.2 565.2C1021.18 592.26 1076.01 618.27 1237.93 642.5 1310.17 675.76 1019.72 714.16 1180.55 711.82 1294.26 703.84 1272.49 687.86 1133.6 665.95 962.39 638.54 1184.25 644.29 1191.88 708.8 1067.31 779.04 925.04 865.18 841.66 956.93 851.42 1037.39 933.67 1095.25 1030.39 1117.28 1090.44 1100.56 1077.13 1048.84 998.07 977.05 879.78 913.15 765.47 877.65 685.92 890.32 653.5 955.13 666.91 1057.81 707.94 1168.88 764 1250.61 810.6 1275.75 836.55 1234.12 842.1 1146.74 822.99 1050.07 786.22 990.58 735.28 1001.83 678.6 1083.12 622.8 1202.33 564.18 1305.03 511.96 1342.89 467.85 1295.67 423.87 1189.14 388.23 1076.61 361.16 1019.1 334.1 1050.47 316.27 1150.98 307.53 1265.34 298.93 1335.94 299.21 1324.66 306.79 1238.62 314.83 1069.2 293.14 1064.59 226.22 1203.03 153.36 1264.57 61.03 1263.33 -39.45 1200.14 -124.91 1096.09 -181.46 986.7 -190.75 904.89 -152.91 870.46 -78.88 887.1 0.68 940.31 41.02 1011.77 17.17 1073.06 -78.34 1105.64 -210.53 1102.25 -326.56 1060.66 -368.27 991 -316.84 903.45 -204.71 814.48 -108.31 736.03 -104.99 673.04 -209.49 631.81 -364.24 610.5 -325.26 659.3 -518.02 596.45 -431.79 557.1 -266.03 530.03 -223.52 501.14 -342.55 469.93 -499.43 437.89 -532.12 402 -409.96 361.01 -247.81 317.51 -193.61 267.31 -285.43 209.98 -433.55 150.72 -498.27 86.27 -423.08 19.72 -265.6 -41.16 -146.67 -95.58 -145.21 -136.88 -250.3 -160.02 -371.05 -161.93 -415.99 -140.66 -352.03 -103.92 -215.68 -55.23 -85.18 -6.4 -23 24.54 -50.97 28.98 -136.39 -3.08 -230.48 -71.12 -276.91 -166.18 -254.93 -269.6 -171.28 -354.77 -56.61 -401.55 52.5 -395.32 133.52 -341.69 169.3 -258.52 165.22 -178.61 129.39 -139.55 82.63 -160.35 41.21 -241.7 2.09 -408.8 44.32 -450.04 103.62 -297.54 151.16 -221.92 197.38 -218.59 238.75 -294.51 281.05 -414.22 316.26 -517.48 343.32 -548.88 370.38 -491.41 388.66 -376.14 399.07 -264.24 410.41 -211.64 416.13 -241.52 419.62 -333.77 429.13 -442.53 443.73 -510.92 470.03 -506.92 511.43 -432.16 571.56 -317.88 651.55 -210.65 739.86 -149.17 832.35 -152.25 912.62 -209.84 961.14 -296.77 968.5 -373.23 929.19 -409.87 861.78 -394.37 787.38 -328.74 742.45 -232.88 759.19 -129.14 842.79 -43.64 972.35 8.54 1093.23 21.98 1154.98 1.29 1124.75 -40.45 1026.21 -93.48 919.99 -139.33 884.21 -167.87 957.33 -176.82 1104.3 -161.38 1233.53 -125.58 1256.21 -72.87 1159.33 -10.22 1021.69 55.62 966.33 124.43 1048.67 188.47 1212.07 245.55 1319.16 299.1 1277.88 344.99 1126.17 384.35 1014.46 420.71 1055.12 452.8 1217.35 482.18 1341.73 510.66 1301.96 538.14 1136.2 565.2Q1136.2 565.2 1136.2 565.2" opacity="0.46"></path><path d="M1080.27 386.29C985.02 420.91 1266.94 460.79 1133.53 468.08 962.81 474.03 1199.92 491.4 1204.82 518.2 1072.99 549.59 934.53 593.34 874.23 650.78 920.63 717.47 1031.74 792.84 1130.01 870.85 1156.19 940.51 1090.21 996.38 967.53 1029.05 841.98 1033.93 768.43 1009.62 766.2 960.25 826.13 901.54 910.36 845.25 978.74 809.66 1007.57 811.21 982.14 854.18 913.24 935.01 815.9 1035.22 716.04 1131.72 632.12 1197.17 570.91 1212.44 539.36 1173.22 531.77 1092.78 544.53 1004.52 566.26 940.85 588.09 931.23 612.2 985.21 627.6 1085.71 632.87 1195.88 634.9 1271.5 627.64 1281.34 612.93 1219.64 596.86 1115.52 575.77 1013.96 550.64 963.09 525.51 989.36 496.94 1077.89 464.06 1185.99 429.83 1266.64 388.86 1281.92 339.44 1226.65 286.78 1123.97 224.82 1015.26 155.12 941.43 87.7 927.24 21.34 972.66 -34.95 1054.5 -70.92 1142.12 -81.83 1199 -61.88 1205.31 -19.22 1158.85 40.58 1072.52 99.18 971.46 129.35 879.49 117.38 818.92 52.6 798.46 -51.73 817.89 -170.46 864.91 -263.34 922.47 -294.04 978.44 -251.85 1015.04 -155.98 1025.09 -62.96 1008.01 -24.97 965.1 -77.31 904.26 -201.74 830.72 -337.2 755.06 -406.02 684.33 -368.13 619.63 -250.15 567.01 -136.75 526.43 -118.75 496.07 -217.74 475.16 -370.98 460.42 -447.9 448.19 -172.86 425.93 -303.14 407.02 -451.6 393.17 -487.8 373.89 -375.72 348.77 -219.35 323.64 -162.25 293.26 -251.14 258.16 -404.65 223.38 -483.48 184.64 -420.94 143.25 -268.66 103.86 -149.35 64.34 -150.68 27.45 -328.46 -15.25 -290.63 -38.2 -98.51 -9.69 -69.22 19.77 -138.14 55.37 -249.75 90.19 -335.06 112.3 -338.1 117.81 -258.01 98.95 -130.26 52.96 -13.24 -18.13 50 -107.04 44.3 -197.54 -15.45 -275.92 -93.97 -325.03 -161.92 -334.27 -188 -301.68 -165.96 -235.89 -101.39 -160.99 -11.55 -99 82.8 -74.94 171.26 -103.65 237.87 -181 280.39 -287.03 288.56 -379.66 251.3 -165.51 260.41 -262.43 270.05 -375.51 287.58 -466.6 312.71 -492.89 337.84 -442.05 369.97 -337.95 409.27 -228.85 449.22 -162.16 497.22 -164.58 553.01 -230.49 608.56 -330.97 669.14 -419.48 730.3 -459.29 782.36 -435.5 824.13 -355.48 847.13 -248.8 848.16 -149.93 824.01 -90.23 776.81 -83.07 723.72 -126.1 673.93 -198.25 648.09 -272.3 664.78 -326.97 728.27 -341.96 832.17 -313.85 946.64 -248.58 1040.91 -160.93 1079.54 -69.28 1049.23 13.01 963.58 71.83 865.5 102.91 815.08 106.19 846.1 87.73 957.58 56.79 1095.35 17.52 1188.62 -17.79 1181.75 -43.22 1083.79 -59.4 960.78 -60.69 904.97 -48.52 967.19 -25.61 1112.23 6.68 1239.85 44.57 1255.36 87.82 1148.06 132.03 1005.47 174.64 952.63 218.68 1038.85 259.04 1197.33 294.69 1291.19 330.49 1236.64 361.16 1080.27 386.29Q1080.27 386.29 1080.27 386.29" opacity="0.16"></path><path d="M1024.2 234.37C916.11 257.57 930.7 280.94 1051.74 304.92 1185.58 329.57 1227.59 356.1 1148.47 385.71 1004.66 417.63 896.11 454.51 890.98 497.5 986.52 543.86 1111.05 596.76 1180.4 655.51 1151.04 714.59 1038.04 775.28 905.8 833.41 820.59 882.25 821.2 919.78 894.55 940.64 998.6 943.12 1073.55 925.56 1083.51 889.39 1023.42 844.38 916.59 795.31 803.05 753.53 715.36 733.12 678.4 739.97 691.72 779.43 744.77 847.93 811.33 936.33 868.09 1028.44 903.71 1103.35 905.16 1145.4 875.33 1143.02 819.32 1099.05 748.31 1024.89 673.69 943.62 597.68 885.3 531.43 869.32 477.24 906.37 431.4 988.38 396.73 1091.28 369.92 1181.39 348.41 1227.45 329.97 1212.7 311.64 1141.22 294.64 1042.04 275.08 951.66 251.88 907.1 228.69 928.67 202.41 1005.37 174.23 1105.11 147.37 1190.92 121.29 1227.94 99.06 1203.63 82.13 1127.31 73.82 1025.41 77.58 931.95 89.68 874.96 114.73 869.54 150.55 911.79 184.97 986.65 216.78 1065.74 234.7 1123.77 226.45 1145.47 188.02 1122.21 116.65 1060.88 24.14 974.52 -76.94 882.92 -163.17 803.87 -209.68 748.75 -204.57 725.12 -147.29 730.89 -64.15 762.01 13.72 806.35 46.42 852.47 9.06 895.02 -91.69 922.63 -219.9 931.94 -317.4 923.83 -340.49 897.8 -275.97 858.23 -164.43 807.36 -70.32 750.99 -57.97 693.67 -144.32 634.58 -283.95 579.6 -392.58 530.16 -400.54 483.03 -303.07 441.89 -168.21 406.11 -98.05 372.33 -146.88 342.44 -285.31 315.47 -410.94 289.13 -427.88 264.53 -319.79 241.33 -173.42 218.14 -104.85 196.89 -163.47 178.06 -356.8 152.52 -229.04 126.35 -77.72 130.48 -107.11 137.83 -218.09 151.61 -331.87 170.51 -376.65 187.62 -321.18 204.8 -198.49 217.59 -71.6 219.08 -4.41 208.14 -20.19 180.51 -103.09 135.46 -202.09 73.32 -266.34 -2.4 -267.83 -81.71 -202.64 -157.91 -97.47 -219.43 15.69 -255.62 100.13 -260.94 138.47 -233.23 128.24 -181.57 82.63 -115.8 23.29 -53.58 -35.82 -16.4 -73.26 -15.61 -82.37 -57.98 -64.12 -136.69 -21.13 -234.68 36.97 -326.55 106.7 -385.81 176.56 -395.52 240.65 -351.63 301.97 -271.26 353.35 -180.44 395.48 -113.06 433.44 -97.68 464.82 -141.51 491.92 -231.89 517.67 -336.22 541.67 -415.29 564.87 -436.88 588.07 -392.35 609.9 -299.63 629.34 -195.86 647.42 -119.77 660.55 -98.17 666.35 -135.27 667.96 -216.42 659.55 -308.24 640.31 -377.17 618.31 -401.14 589.65 -370.08 560.12 -294.76 542.2 -196.48 538.42 -103.42 558.25 -38.76 605.44 -15.68 679.87 -35.24 774.73 -86 869.82 -153.95 949.96 -216.53 993.37 -257.64 988.23 -269.72 935.64 -247.62 852.88 -196.81 778.1 -124.63 741.87 -43.71 770.74 34.49 862.38 103.84 987.21 155.93 1094.27 189.2 1134.2 204.09 1089.49 203.54 983.28 192.78 881.28 172.74 844.72 151.25 906.51 132.36 1100.33 107.96 1073.16 99.97 906.29 114.84 914.22 128.98 1030.27 146.97 1173.59 167.51 1236.79 188.71 1170.57 211.18 1024.2 234.37Q1024.2 234.37 1024.2 234.37" opacity="0.37"></path><path d="M968.2 408.64C864.99 429.9 862.82 455.87 958.98 486.22 1090.01 516.48 1168.15 550.89 1145.4 588.74 1036.16 625.77 905.51 664.97 826.86 704.7 839.64 741.06 929.69 774.85 1041 803.26 1114.21 824.04 1107.46 835.55 1025.5 835.43 904.29 825.53 797.52 803.88 745.18 772.02 761.47 737.56 830.78 701.55 917.57 670.69 989.2 654.41 1014.29 655.74 986.02 679.72 912.21 726.76 814.73 794.08 718.75 874.64 640.82 955.33 596.4 1025.3 585.99 1071.31 606.14 1084.63 644.53 1062.46 688.12 1008.98 732.49 939.97 764.21 870.73 779.85 821.33 781.99 809.41 768.42 840.23 743.49 909.97 709.38 1001.67 670.58 1091.94 631.25 1154.89 589.04 1172.08 550.16 1137.53 516.44 1060.95 482.34 968.88 454.35 889.69 433.09 851.1 411.83 868.38 397.79 933.58 390.48 1023.3 381.82 1136.12 381.89 1080.23 377.14 945.56 363.49 863.66 339.29 814.54 300.31 807.24 247.82 841.02 180.16 902.35 100.88 972.45 22.38 1035.45 -49.9 1072.85 -102.82 1076.73 -125.18 1046.82 -112.41 988.27 -64.9 912.67 0.64 830.51 68.93 755.62 114.87 696.95 115.27 658.8 63.64 643.52 -33.09 647.91 -144.99 669.63 -237.97 700.53 -276.4 733.79 -246.19 768.04 -160.03 794.94 -57.79 811.89 5.2 820.68 -5.37 818.01 -94.17 805.5 -221.06 785.24 -324.96 758.31 -349.74 727.38 -283.09 692.45 -162.59 656.72 -61.56 622.06 -47.02 586.13 -131.42 552.88 -266.65 523.25 -367.01 493.4 -367 467.64 -263.79 446.38 -128.03 425.11 -51.36 408.85 -81.32 397.28 -257.91 374.1 -32.88 347.95 -146.75 325.95 -255.04 301.63 -312.33 268.37 -290.6 224.67 -199.14 172.81 -78.78 112.01 21.06 44.99 66.27 -21.03 45.69 -83.58 -22.05 -135.73 -142.42 -177.51 -139.41 -119.23 -13.08 -38 83.98 12.48 163.61 47.37 215.08 55.14 235.79 29.13 228.3 -28.86 202.47 -110.82 162.97 -199.88 123.82 -278.54 92.5 -327.92 67.71 -336.21 57.06 -300.95 59.35 -231.06 70.66 -149.18 91 -77.74 116.54 -40.51 146.36 -52.53 176.93 -111.75 205.7 -202.28 235.41 -296.2 261.37 -363.58 282.63 -380.88 303.89 -342.32 319.96 -260.98 331.67 -164.7 344.31 -83.91 354.55 -43.08 364.83 -52.05 379.39 -106.78 398.44 -186.89 425.7 -266.59 461.99 -324.35 510.41 -341.34 572.05 -313.85 640.22 -248.87 715.3 -162.31 789.71 -74.33 871.15 19.51 861.21 2.73 770.57 -75.99 709.17 -131.45 669.36 -172.23 671.38 -191.41 723.09 -187.53 816.63 -159.67 928.61 -112.98 1021.46 -51.7 1065.71 15.95 1042.65 83.18 964.94 147.81 865.18 203.36 792.69 248.18 789.92 283.21 864.54 307.65 988.41 323.72 1101.48 332.16 1148.11 336.14 1101.69 338.36 935.24 337.3 960.91 345.91 1144.31 360.26 1178.47 371.33 1103.96 387.38 968.2 408.64Q968.2 408.64 968.2 408.64" opacity="0.91"></path><path d="M912.2 565.88C814.76 585.21 798.53 604.08 869.02 622.11 1019.1 665.66 771.52 685.41 849.24 668.84 950.96 653.71 1032.03 633.8 1058.35 611 1020.01 591.39 930.76 574.23 823.36 563.47 730.08 564.34 679.39 577.79 679.43 606.55 725 650.23 794.78 707.95 864.13 776.21 916.36 846.9 933.95 914.6 914.88 970.47 863.31 1006.18 790.44 1017.04 710.3 1000.22 630.6 960.46 564.4 903.15 516.17 839.58 479.35 769.6 492.94 815.76 516.48 930.04 540.74 1047.08 557.72 1081.06 548.95 979.47 540.43 896.25 526.38 828.09 507.05 795.1 487.72 808.52 463.57 862.73 434.44 941.21 404.77 1023.95 369.24 1086.63 327.53 1113.38 284.92 1098.79 236.41 1045.85 183.43 968.15 132.82 882.71 82.49 808.5 37.25 759.7 3.56 744.12 -16.42 761.73 -17.68 804.95 -1.18 864.89 34.2 925.67 84.11 974.77 134.46 1005.22 178.55 1009.45 202.47 987.8 193.88 943.46 149.74 882.88 72.18 814.49 -22.5 743.83 -116.4 679.73 -184.8 626.98 -207.66 587.11 -178.5 562.31 -105.35 550.98 -18.07 552.23 52.44 562.08 73.53 576.68 29.97 596.43 -66.84 615.42 -182.73 631.28 -269.77 646.63 -292.06 656.54 -237.87 660.71 -83.51 661.04 -70.98 635.36 -245.19 613.28 -319.5 597.25 -305.23 579.4 -207.79 560.07 -83.17 540.74 -1.74 520.39 -6.04 498.77 -92.03 476.72 -209.53 452.58 -295.08 425.63 -306.17 397.19 -236.13 364.76 -120.59 327.68 -11.77 288.44 42.14 244.2 23.49 195.36 -55.46 146 -154.11 94.34 -228.42 42.85 -249.74 -3.49 -207.52 -44.15 -118.85 -75.2 -11.4 -93.66 79.71 -97.65 131.16 -85.44 133.91 -60.35 94.13 -22.8 30.62 22.51 -65.95 83.8 -85.45 109.52 -2.32 46.07 74.54 -23.13 151.75 -102.65 220.47 -179.83 278.9 -240.3 320.83 -273.67 347.57 -272.27 361.1 -237.65 364.52 -176.04 362.52 -101.5 350.55 -12.85 336.54 -52.21 342.6 -172.95 348.75 -255.26 361.37 -311.44 380.7 -324.88 400.03 -291.91 425.61 -221.81 457.11 -134.76 488.62 -53.69 525.88 0.7 567.99 16.4 608.88 -9.29 652.38 -66.8 695.57 -139.56 748.1 -236.65 785.65 -240.33 754.32 -145.25 717.34 -64.43 670.94 11.6 623.87 71.49 591.06 108.45 578.77 119.12 596.95 106.25 647.73 73.21 727.05 29.64 822.58 -15.7 943.37 -74.23 931.98 -99.3 809.86 -62.72 741.31 -22.18 717.83 25.78 756.39 77.13 847.94 131.66 962.34 184.24 1055.47 232.87 1088.29 279.53 1046.95 320.69 949.04 356.46 844.41 389.42 783.6 417.9 802.15 442.9 895.17 466.23 1018.35 487.51 1108.17 507.6 1116.29 527.22 1036.82 546.55 912.2 565.88Q912.2 565.88 912.2 565.88" opacity="0.83"></path><path d="M856.27 396.39C765.44 413.79 738.02 426.92 783.63 435.95 933.07 447.56 879.84 453.31 705.08 446.62 838.39 461.06 981.34 498.39 957.87 571.21 788.26 671.43 633.67 790.05 604.13 894.28 692.69 945.02 799.04 922.73 841.77 832.68 804.12 734.81 704.77 686.81 593.21 739.39 482.4 874.63 401.91 1013.27 347.3 1056.28 324.08 1028.21 304.13 971.39 285.97 897.42 268.58 824.32 251.47 766.87 234.08 739.09 216.68 749.08 199.41 792.96 182.9 859.53 160.46 968.31 141.74 973.64 200.85 767.72 252.11 686.66 294.16 707.37 278.19 794.43 181.83 893.92 25.53 938.97 -108.63 911.78 -124.68 824.3 -11.34 709.48 122.02 602.51 109.26 515.19 -64.87 461.86 -223.69 434.09 -84.34 425.45 -63.71 410.93 -219.15 398.51 -268.21 389.14 -242.55 375.88 -151.72 358.48 -38.7 341.08 44.2 319.97 61.33 295.45 6.53 271.05 -92.71 243.53 -191.51 213.48 -241.73 155.7 -66.14 94.39 94.26 41.73 50.57 9.2 -113.07 5.22 -183.9 38.91 -81.43 92.25 98.2 157.12 207.11 199.01 189.19 180.61 92.62 94.32 9.1 -41.38 -19.6 -164.67 27.58 -216.61 114.81 -161.07 224.71 -41.61 321.01 60.5 393.35 56.75 427.13 7.22 455.73 -64.1 479.95 -143.21 503.55 -213.23 523.9 -258.88 541.3 -268.89 558.69 -241.14 572.73 -181.93 583.01 -105.39 592.68 -27.98 597.47 33.97 596.5 68.77 573.27 -20.2 485.29 -176.87 572.69 -3.18 783.09 154.87 787.37 88.58 651.93 7.64 758.99 -11.54 953.85 8.4 1023.04 54.25 888.14 118.67 732.35 187.09 796 248.38 901.51 279.74 1005.88 308.06 1064.12 332.88 1050.44 357.74 969.29 378.99 856.27 396.39Q856.27 396.39 856.27 396.39" opacity="0.18"></path><path d="M800.27 233.99C682.14 264.92 779.46 295.83 953.45 329.82 988.44 368.21 838.73 417.4 674.57 482.5 654.6 556.64 776.45 645.46 900.08 738.78 915.42 814.72 803.82 862.27 652.64 861.67 541.35 816.34 519.54 735.73 562.76 654.65 641.12 622.94 700.58 662.53 721.97 772.19 713.54 903.32 676.48 991.89 630.14 983.1 575.87 884.73 529.78 754.78 498.85 683.09 467.92 725.8 453.62 846.77 449.57 960.45 437.58 998.61 418.37 934.61 373.21 810.12 298.22 687.03 187.83 622.46 61.8 630.75 -29.07 698.5 -51.67 780.84 19.07 839.27 129.72 859.89 204.65 831.27 157.11 768.63 1.27 682.74 -148.31 594.46 -151 516.62 -9.51 444.47 122.58 387.91 75.66 343.84 -110.26 303.78 -213.85 269.57 -95.72 238.64 86.58 207.72 93.76 181.53 -68.32 163.25 -194.7 149 -127.42 149.29 51.89 167.84 138.34 210.75 -94.87 274.75 52.36 205.72 200.44 106.76 287.9 -12.23 300.37 -112.2 252.39 -152.71 189.12 -115.89 144.31 -15.48 115.93 86.34 119.84 132.75 143.72 82.68 177 -42.9 213.08 -170.15 244 -212.89 274.93 -141.23 299.25 -5.02 324.29 105.3 358.75 126.05 411.09 55.09 493.07 -53.36 591.48 -140.35 705.68 -152.23 801.33 -88.33 836.53 24.94 793.47 142.22 685.93 228.09 597.57 269.24 597.53 266.1 722 237.84 888.13 192.19 966.64 154.3 877.48 133.76 720.83 122.25 671.14 129.31 809.46 149.25 983.48 173.59 982.58 203.06 800.27 233.99Q800.27 233.99 800.27 233.99" opacity="0.12"></path><path d="M744.2 398.53C629.18 425.59 681.01 464.64 834.74 513.99 940.07 562.59 893.14 618.9 742.62 676.95 595.84 744.45 819.03 751.1 831.1 670.72 735.75 610.78 612.89 565.25 508.75 559.57 438.75 607.89 413.53 703.34 415.82 819.43 439.35 911.67 461.3 943.56 469.95 895.86 479 794.29 470.38 684.6 443.32 627.1 416.26 658.47 372.04 756.17 311.95 864.81 252.26 934.53 181.08 928.15 110.65 853.47 61.47 741 42.12 634.64 70.41 566.99 132.84 550.91 216.84 580.25 276.73 632.92 262.35 696.12 163.94 742.89 15.53 763.95 -93.87 763.12 -95.27 738.12 20.23 698.82 150.91 648.49 182.44 596.66 66.67 550.22 -97.49 502.28 -154.81 463.64 -39.79 436.58 148.2 402.41 -113.3 388.91 -36.64 393.64 123.33 386.05 223.09 366.49 209.95 325.62 108.19 262.86 3.12 177.24 -39.87 78.57 -4.39 -9.56 92.3 -71 204.6 -83.11 309.54 -43.65 378.23 38.42 413.37 131.06 422.74 185.92 419.9 176.91 419.93 96.76 415.66 -22.3 425.14 -125.49 452.2 -156.89 479.27 -99.42 522.62 15.74 577.93 127.77 628.94 185.93 681.01 169.45 718.54 97.06 730.3 0.81 706.17 -70.38 642.94 -90.52 572.36 -56.67 514.51 20.93 514.49 116.35 592.96 213.3 730.12 289.93 860.06 340.35 863.63 370.1 636.62 357.09 828.87 355.98 948.95 357.68 909.97 371.46 744.2 398.53Q744.2 398.53 744.2 398.53" opacity="0.66"></path><path d="M688.2 565.95C580.11 589.14 592.55 611.7 705.84 631.44 835.87 648.66 884.09 658.43 823.93 656.73 693.76 648.04 570.67 624.76 512.8 587.99 536.15 551.21 613.74 513.35 697.71 486.83 760.12 486.79 771.58 517.26 737.97 581.97 670 670.01 588.82 766.6 512.65 845.95 438.55 883.9 380.93 867.28 338.44 797.72 300.09 703.62 270.63 615.65 247.43 571.1 224.24 592.67 208.41 667.03 203.01 761.28 201.75 844.03 217.18 881.34 251.08 864 287.05 799.77 330.03 708.26 362.25 615.43 360.11 537.85 315.35 490.83 222.54 474.92 108.17 487.59 3.07 516.76 -44.42 549.98 -10.71 587.42 91.58 614.64 204.74 628.63 247.89 637.18 186.48 633.56 47.49 620.82 -74.74 605.72 -91.88 585.65 16.2 562.45 162.57 539.26 232.27 514.04 180.9 485.4 50.5 454.4 -57.23 415.82 -71.33 367.07 13.58 312.89 146.21 247.48 255.35 174.29 298.87 105.31 268.72 42.83 197.54 -0.24 113.76 -14.74 59.73 4.76 47.82 58.17 73.51 126.85 128.34 197.57 193.35 244.8 267.04 245.15 331.84 194.66 382.68 102.97 431.91 -0.22 467.98 -79.3 491.18 -100.89 514.38 -56.36 523.61 36.28 518.13 139.34 511.04 217.87 488.44 247.7 454.94 226.77 430.14 164.42 413.49 88.64 423.54 24.74 471.18 -15.8 558.5 -18.78 672.68 11.64 774.28 68.57 831.95 139.73 812.61 212.27 727.63 284.78 615.81 346.26 547.86 395.15 578.94 437.06 699.85 469.47 839.21 496 899.58 520 834.62 542.74 688.27 565.94Q688.2 565.95 688.2 565.95" opacity="0.34"></path><path d="M632.2 406.52C534.77 425.85 517.17 435.69 581.61 436.76 740.92 434.73 741.16 405.72 587.78 397.09 495.6 405.44 446.49 427.54 442.48 467.66 477.54 523.76 530.66 594.77 582.07 672.98 642.76 771.73 648.43 790.17 616.46 692.88 589.9 614.29 565.28 548.09 545.95 515.1 526.62 528.52 513.49 580.89 503.6 654.63 490.15 733.3 472.92 792.58 444.93 819.63 404.67 812.32 346.09 771.55 268.97 708.72 187.77 632.98 106.9 558.44 46.5 494.66 25.18 443.55 51.37 409.76 123.42 390.75 226.64 392.57 -32.07 392.72 72.2 368.36 196.82 349.04 278.74 321.35 278.94 286.69 201.22 252.65 92.89 213.2 9.33 171.6 -16.86 134.61 26.79 101.32 116.67 77.66 224.17 66.87 312.69 72.89 363.76 98.67 374.19 137.11 351.28 188.72 312.58 244.34 262.83 287.05 222.09 310.49 196.85 303.65 179.13 262.44 176.91 192.16 185.73 106.04 198.07 24.84 215.29 -31.46 234.62 -44.89 253.95 -11.92 274.47 58.17 298.59 144.23 326.22 225.63 363.61 283.36 414.83 308 473.56 297.35 546.13 259.82 625.68 208.63 694.17 150.55 744.83 102.45 759.74 71.69 734 56.9 668.41 62.55 581.03 83.99 511.28 117.81 484.96 158.85 525.33 201.16 623.05 246.94 742.38 288.74 827.56 323.91 834.82 359.29 756.82 387.19 632.2 406.52Q632.2 406.52 632.2 406.52" opacity="0.76"></path><path d="M576.27 234.23C458.14 265.16 547.9 295.56 705.24 336.6 759.46 392.44 653.31 478.72 502.36 590.89 386.27 693.02 352.75 759.42 359.54 743 392.12 654.31 402.32 530.78 371.4 459.09 340.47 501.81 271.33 616.27 185.15 717.79 124.77 760.37 110.01 717.52 185.58 627.29 295.99 515.78 369.33 421.55 292.44 356.6 112.44 304.48 10.14 267.49 128.27 236.56 310.58 205.63 323.5 183.69 184.57 182.2 55.05 193.55 77.34 239.51 202.27 310.48 351.66 360.19 442.32 370.24 477.79 305.02 479.91 180.84 482.99 53.83 513.91 11.09 544.84 82.75 600.7 218.82 652.17 330.2 670.3 369.29 627.91 335.7 519.06 274.11 439.93 183.46 758.77 189.04 576.27 234.23Q576.27 234.23 576.27 234.23" opacity="0.86"></path><path d="M520.2 388.42C412.11 411.61 420.32 455.37 516.32 513.96 635.88 569.85 693.67 630.98 675.76 678.61 601.57 698.16 508.54 678.31 432.29 613.45 359.83 530.78 312.63 447.65 289.44 403.1 266.24 424.67 269.24 494.38 301.5 576.35 365.97 669.97 384.48 626.15 206.72 549.01 93.72 493.05 76.11 449.84 184.2 426.65 366.53 402.95 206.88 437.06 120.46 447.05 140.77 420.19 204.63 359.18 272.52 266.77 347.52 167.8 400.74 88.69 423.93 67.1 447.15 111.63 438.13 204.15 403.33 303.83 375.64 385.7 347.97 430.16 358.04 441.01 425.73 423.79 548.55 398.86 675.89 383.16 729.08 364.78 666.62 365.21 520.27 388.41Q520.2 388.42 520.2 388.42" opacity="0.12"></path><path d="M464.58 565.33C346.16 596.26 420.64 619.15 530.77 591.62 608.81 529.37 596.65 418.72 565.72 347.04 534.79 389.76 490.96 491.2 372.38 560.69 221.71 605 122.16 595.1 240.58 564.17 422.79 533.24 446.47 487.14 364.01 402.3 254.67 292.27 225.17 165.76 256.1 123.04 287.03 194.72 372.53 330.44 522.4 433.23 645.39 501.29 646.79 534.4 464.58 565.33Q464.58 565.33 464.58 565.33" opacity="0.51"></path></g></svg>